<?xml version="1.0" encoding="UTF-8"?>
<svg id="Layer_2" data-name="Layer 2" xmlns="http://www.w3.org/2000/svg" viewBox="0 0 600 600">
  <defs>
    <style>
      .cls-1 {
        fill: none;
      }

      .cls-1, .cls-2 {
        stroke-width: 0px;
      }

      .cls-2 {
        fill: #ea8c55;
      }
    </style>
  </defs>
  <g id="Layer_1-2" data-name="Layer 1">
    <g>
      <g>
        <path class="cls-2" d="M463.43,267.29c-.02-5.12-.72-10.33-1.88-15.32-5.54-23.85-26.57-42.1-51.02-44.14-8.25-.68-16.58-.42-24.87-.53-5.7-.07-11.41-.02-17.29-.02.11-.42.11-.51.15-.56.19-.24.38-.5.59-.72,10.65-11.07,15.37-24.21,14.07-39.58-1.52-17.95-13.45-33.34-30.67-38.97-2.85-.93-4.82-2.38-6.48-4.88-10.85-16.22-30.5-23.34-48.96-17.85-8.49,2.52-15.48,7.36-21.24,14.03-1.24,1.45-2.47,2.34-4.39,1.03-12.29-8.41-25.91-10.85-40.47-8.97-11.46,1.49-21.45,6.06-29.43,14.56-1.08,1.16-1.94,1.4-3.4.89-7.68-2.65-15.57-3.32-23.57-1.86-17.29,3.17-29.49,12.9-35.24,29.49-5.79,16.73-3.12,32.54,8.55,46.13,2.74,3.2,3.77,6.08,3.77,10.15-.1,78.26-.07,156.53,0,234.79,0,3.99.11,8.02.7,11.94,1.84,12.02,7.44,21.98,17,29.58,9.97,7.92,21.61,10.56,34.03,10.57,38.16.02,76.31.03,114.46-.07,4.43-.02,8.93-.46,13.29-1.29,18.8-3.6,33.77-18.57,36.85-37.38,1.13-6.89.82-14.04,1.08-21.07.11-3.03.02-6.08.02-9.27.93-.05,1.61-.12,2.29-.12,10.74,0,21.47.09,32.2,0,13.6-.11,26.13-3.78,36.89-12.32,15.12-12.01,22.75-28.01,22.96-47.11.37-33.72.19-67.44.02-101.16ZM168.85,215.73v-3.37h10.17c2.73-.54,7.74-1.21,9.97-1.78.31.86.63,1.71.89,2.56,5,15.48,18.76,25.99,35,26.71,10.75.49,20.32-2.43,28.71-9.37,8.01-6.61,17.9-7.16,25.58-1.58,5.31,3.85,8.28,9.19,8.49,15.75.24,7.53,0,15.06.11,22.59.24,16.75,10.83,30.25,27.05,34.34,7.98,2.02,15.83,1.21,23.38-2.13.99-.44,5.87-3.37,7.36-4.1,1.3-1.19.52-.64,1.3-1.19,1.5-1.48,3.03-2.92,4.77-4.57.12.66.26,1.07.26,1.48.04,43.45.04,86.9.15,130.35,0,2.69-1.72,2.57-3.32,2.82-11.66,1.8-23.28,4.01-34.99,5.17-15.65,1.54-31.36,2.72-47.07,3.17-13.29.38-26.64-.1-39.92-.92-18.96-1.16-37.77-3.78-56.43-7.4-1.58-.31-1.46-1.28-1.46-2.42.02-24.94,0-49.88,0-74.81,0-43.77,0-87.53-.02-131.29ZM351.37,453.19c-2.98,15.83-14.47,25.9-30.58,26.11-25.38.32-50.76.15-76.13.15-15.11,0-30.24.13-45.34-.17-16.99-.33-29.31-12.52-30.19-29.44-.13-2.49-.02-4.99-.02-7.73,60.98,11.14,121.7,10.85,183.03-.27-.24,3.83-.07,7.66-.76,11.34ZM303.61,235.4c-6.72-26.2-38.43-36.51-59.48-19.55-6.99,5.63-14.65,8.14-23.37,5.55-8.66-2.58-13.7-8.76-15.32-17.57-.73-3.98-2.29-7.09-6.04-8.89-1.05-.51-2.07-1.11-3.03-1.78-3.34-2.35-6.59-2.38-10.3-.5-15.95,8.1-28.47-3.3-31.44-16.41-3.86-17.01,6.32-32.13,23.52-34.66,7.23-1.07,14.12.41,20.49,4.26,1.85,1.12,4.15,1.89,6.3,2.01,2.45.15,4.54-1.39,5.5-3.75,4.81-11.85,14.77-15.47,26.27-16.27,10.28-.72,19.76,1.94,27.85,8.44,5.77,4.63,17.52,3.22,22.06-4.04,11.19-17.88,37.79-16.2,47.35,2.6.53,1.04,1.02,2.11,1.51,3.17,1.06,2.29,2.69,3.72,5.32,4.02,8.18.93,15.13,4.33,20.47,10.68,3.21,3.8,5.35,8.16,5.4,13.2.05,4.75.27,9.62-.61,14.24-1.29,6.7-5.35,11.99-11.55,14.87-7.85,3.65-10.7,9.99-10.78,17.93-.16,16.23-.04,32.46-.05,48.7,0,7.44-2.47,13.87-8.31,18.62-5.96,4.85-12.76,5.98-19.77,2.73-7.04-3.28-10.38-9.23-10.53-16.96-.07-3.76,0-7.53,0-11.29M412.91,363.16c.04,8.97-6.61,14.28-14.35,14.08-9.71-.25-19.42-.07-29.32-.07v-117.95c.77-.04,1.46-.11,2.14-.11,9.24,0,18.49-.03,27.74,0,8.11.02,13.67,5.39,13.69,13.47.07,30.19-.04,60.39.11,90.58ZM446.46,365.87c-.15,16.67-6.87,30.19-21.62,38.92-5.67,3.35-11.9,5.24-18.49,5.35-11.98.19-23.96.11-35.95.13-.31,0-.61-.09-1.1-.15v-15.44c.81-.04,1.64-.11,2.46-.12,9.71,0,19.43.03,29.14,0,14.62-.03,25.75-9.18,28.54-23.52.37-1.9.32-3.9.32-5.85.06-31.28-.07-62.57.18-93.85.15-18.21-14.61-29.48-28.91-29.38-9.63.07-19.27-.02-28.9-.04h-3v-17.01c.75-.06,1.42-.15,2.1-.15,10.73-.02,21.46-.07,32.19,0,22.03.13,39.32,15.13,42.61,36.96.34,2.24.48,4.53.48,6.79.03,32.46.23,64.92-.05,97.38Z"/>
        <path class="cls-2" d="M261.33,400.02c38.21-3.58,50.29,8.11,63.23-48.26,1.44-6.28,16.76-3.79,16.06,2.76-7.01,65.14-34.51,63-78.05,61.22-4.6-.19-5.84-15.29-1.24-15.72Z"/>
      </g>
      <rect class="cls-1" width="600" height="600"/>
    </g>
  </g>
</svg>