<?xml version="1.0" encoding="UTF-8"?>
<svg id="Layer_1" data-name="Layer 1" xmlns="http://www.w3.org/2000/svg" viewBox="0 0 300.31 300.64">
  <defs>
    <style>
      .cls-1 {
        fill: none;
      }
    </style>
  </defs>
  <g>
    <path d="m276.24,61h-.23c-1.26,1.53-2.5,3.09-3.79,4.6-1.32,1.55-2.6,3.14-4.05,4.58-1.76,1.72-3.73,3.24-5.52,4.95-2.46,2.34-3.91,5.05-2.75,8.62.32.95,0,1.85-.86,2.72-2.46-4.5-1.51-9.25-1.8-13.93-2.22,4.1-4.44,8.17-6.2,12.43-2.41,5.8-2.38,11.65.65,17.34.23.43.18,1.15,0,1.65-.33.95-.84,1.83-1.37,2.93-2.66-6.33-3.7-12.74-3.58-19.47-.21.17-.32.22-.36.3-2.02,3.78-4.24,7.47-6,11.36-3.38,7.48-3.52,14.94.88,22.18.19.32.27.87.12,1.19-1.36,2.99-2.79,5.96-4.19,8.94-.09-.04-.19-.07-.28-.1-.22-10.23-3.91-19.88-4.72-29.66-.92,2.67-1.8,5.62-2.92,8.48-1.63,4.13-3.59,8.12-5.1,12.3-2.4,6.67-1.67,13.06,2.44,18.98.52.76,1.09,1.01,1.93.76,1.25-.39,2.51-.79,3.81-1.2-4.4,6.4-8.03,13.3-13.38,19.02.62-1.44,1.27-2.87,2.15-4.15,1.8-2.61,3.76-5.1,5.56-7.71,1.05-1.54,1.89-3.23,2.83-4.84-.14-.09-.28-.19-.43-.28-2.23,3.05-4.45,6.09-6.43,8.8-.32-2.49-.55-5.4-1.1-8.25-.87-4.47-2.02-8.88-2.9-13.35-.37-1.94-.36-3.95-.51-5.99-.28.17-.55.29-.8.47-1.09.8-2.21,1.57-3.24,2.44-5.52,4.69-8.55,10.53-8.43,17.9.09,5.75,1.89,10.99,4.31,16.08.71,1.49,1.52,2.94,2.26,4.39-2.64,3.04-5.23,6.03-7.83,9.02-.1-.07-.21-.16-.31-.23.79-3.12.44-6.21-.16-9.3-1.38-7.21-4.39-14.06-4.77-21.55-.21.07-.33.09-.41.16-.37.27-.76.53-1.1.83-6.53,5.6-10.32,12.61-10.75,21.29-.3,5.94,1.54,11.1,5.89,15.26.66.64,1.36,1.22,2.11,1.88-2.97,2.71-5.87,5.36-8.89,8.11,1.19-3.53,1.03-6.99.5-10.49-.83-5.46-2.77-10.81-1.93-16.48.09-.6-.51-1.3-.92-2.23-3.71,5.83-6.83,11.44-8.37,17.8-.46,1.88-.87,3.81-.27,5.72,1.15,3.71,2.61,7.2,6.92,8.49-1.36.45-1.53,2.54-3.56,2.37-1.36,1.11-2.92,2.4-4.48,3.7,1.8-2.54,1.96-5.33,1.3-8.12-.85-3.56-2.01-7.03-3.13-10.84-.66,1.81-1.23,3.24-1.72,4.69-.74,2.19-1.58,4.37-2.11,6.61-.64,2.65-.56,5.28,1.84,7.19.72.58,1.62.95,2.61,1.51-.17.1-.35.18-.51.3-6.82,5.2-13.98,9.93-21.43,14.2-.36.21-1.05.16-1.42-.06-7.65-4.44-15.06-9.28-22.04-14.75-.23-.24-.48-.5-.71-.74-1.68-1.27-3.37-2.54-5.08-3.83-.73.47-.94.32-3.05-2.24.98-.53,2.22-.86,2.96-1.66,3.07-3.33,4.81-7.14,3.71-11.85-1.54-6.57-4.62-12.41-8.29-17.98-.04-.05-.13-.06-.24-.1-.95.69-1.2,1.71-.98,2.76.6,2.98,0,5.84-.56,8.73-.49,2.5-1.01,5-1.41,7.51-.5,3.18-.51,6.37.55,9.74-3.08-2.8-5.95-5.41-8.88-8.08.43-.36.75-.63,1.08-.89,4.38-3.63,6.71-8.33,6.96-13.98.36-8.17-2.65-15.1-8.09-21.04-1.2-1.31-2.63-2.41-4.15-3.8-.28,5.55-1.85,10.41-3.18,15.33-1.41,5.21-2.98,10.42-1.73,16.16-.71-.67-1.32-1.17-1.82-1.74-2.03-2.32-4.06-4.66-6.04-7.03-.16-.19-.11-.7.02-.98.85-1.77,1.82-3.48,2.63-5.28,2.64-5.9,4.38-12,3.36-18.55-1.19-7.68-5.9-12.84-12.15-16.82-.25,2.43-.38,4.81-.75,7.16-1.09,6.98-4.01,13.64-3.58,20.78-2.2-3.02-4.43-6.06-6.65-9.1-.15.09-.31.2-.46.3,1.03,1.74,1.98,3.53,3.13,5.2,1.82,2.68,3.83,5.24,5.66,7.92.74,1.07,1.24,2.3,1.86,3.46-5.46-5.66-9.1-12.55-13.45-18.92,1.4.41,2.74.86,4.11,1.17.38.08,1.04-.13,1.26-.43,2.51-3.42,4.03-7.19,4.1-11.48.06-4.07-1.15-7.84-2.67-11.54-2.33-5.7-5.47-11.09-6.57-17.29-.96,10.05-4.56,19.62-5,29.78-1.49-2.7-2.82-5.43-4.14-8.15-.38-.79-.3-1.47.17-2.26,3.01-5.09,3.86-10.53,2.48-16.29-1.48-6.19-4.73-11.54-7.94-16.91-.02-.04-.12-.03-.37-.07,0,1.68.08,3.35-.02,5-.1,1.62-.32,3.24-.61,4.83-.3,1.63-.67,3.26-1.14,4.85-.44,1.54-1.05,3.05-1.65,4.76-.37-.78-.59-1.32-.89-1.81-.79-1.25-.83-2.39-.12-3.78,1.88-3.69,2.37-7.63,1.6-11.72-1.18-6.32-4.59-11.61-7.73-17.42-.14,4.98.9,9.79-1.65,14.25-.97-1.06-1.08-2.13-.72-3.27.74-2.36.17-4.48-1.34-6.29-1.26-1.51-2.69-2.88-4.15-4.2-2.27-2.08-4.8-3.88-6.58-6.49-1.24-1.82-2.74-3.48-4.12-5.21h-.23c-.38.97-.21,1.91.57,2.54,1.86,1.52,2.58,3.62,3.13,5.81.81,3.21,1.49,6.47,2.37,9.67.72,2.64,1.92,5.04,4.14,6.82,1.37,1.09,2.8,1.47,4.4.66.99-.51,1.53-.2,1.72.81.38,2.08.83,4.15,1.04,6.26.33,3.26,1.37,6.08,4.08,8.11.3.22.49.66.62,1.05.99,2.91,1.67,5.99,3.01,8.73,2.85,5.81,6.05,11.46,9.11,17.17.21.39.42.77.64,1.15-2.04-1.51-4.12-2.7-6.59-3.14-3.4-.62-6.67.06-9.97.81-2.93.66-5.89,1.23-8.83,1.79-.64.12-1.18,0-1.67-.66-.91-1.21-3.58-1.48-5.21-.51.81.34,1.45.8,2.11.83,2.76.16,5.04,1.41,7.16,3.01,2.69,2.02,5.27,4.17,7.92,6.24,2.11,1.65,4.29,3.18,6.91,3.91,2.87.8,5.43.24,7.56-1.92,1.85-1.86,3.08-4.02,2.94-6.78.09-.04.2-.07.29-.11,3.76,5.75,7.52,11.52,11.28,17.27-.09.07-.19.13-.28.19-7.1-5.23-14.06-6.12-22.63-3.81-4.61,1.24-9.09,2.98-13.62,4.49-.26.09-.51.23-.77.35,3.67.09,7.05,1.18,10.28,2.63,4.51,2.02,8.93,4.24,13.43,6.27,3.66,1.64,7.47,2.9,11.55,2.42,3.15-.36,6.3-1.01,7.14-4.88.02-.05.11-.08.25-.18,7.23,9.5,16.58,17.11,24.05,26.66-.38,0-.54.03-.68,0-5.33-1.59-10.61-1.02-15.88.41-6.89,1.86-13.42,4.99-20.76,5.73.26.14.36.21.46.24,4.15,1.54,8.35,2.98,12.45,4.65,4.36,1.76,8.61,3.8,13.23,4.86,6.65,1.53,12.3.15,16.64-5.46.9-1.17,1.07-2.22.54-3.52-.29-.75-.48-1.53-.81-2.61,2.98,2.76,5.67,5.25,8.36,7.74.06.05.07.13.21.4-3.02-1.51-4.87.25-6.65,2.12-.61.65-1.19,1.32-1.74,2.02-2.13,2.7-4.8,4.67-8.08,5.78-1.16.39-2.31.86-3.42,1.4-.49.24-.83.75-1.43,1.31,2.13.14,3.89.29,5.66.37,3.04.13,6.1.42,9.13.27,6.34-.3,11.03-5.77,8.82-11.51,8.51,7.28,17.31,13.8,26.71,19.81-2.4,1.23-4.6,2.4-6.85,3.5-7.47,3.65-15.07,6.96-23.18,8.95-1.65.4-2.95.9-3.39,2.7-.09.39-.37.78-.66,1.08-.9.94-1.83,1.82-2.78,2.75.52,1.04,1.45,1.06,2.46.87.97-.19,1.94-.33,2.61.66h.23c1.71-.65,3.42-1.29,5.15-1.94,10.58-3.95,20.67-8.92,30.37-14.67.85-.51,1.48-.6,2.39-.06,11.11,6.61,22.69,12.18,34.95,16.31.24.08.46.23.69.36h.23c.64-1.07,1.63-.82,2.58-.66,1.06.18,2,.15,2.53-1.09-1.77-.98-3.11-2.37-3.81-4.24-.41-1.09-1.05-1.57-2.19-1.84-8.66-2.05-16.75-5.59-24.69-9.49-2.05-1.01-4.05-2.09-6.07-3.13,4.6-3.23,9.17-6.29,13.57-9.55,4.39-3.25,8.61-6.71,12.76-9.97-.11,1.01-.45,2.16-.33,3.26.46,3.94,3.56,6.91,7.86,7.71,5.33,1,10.59-.47,15.97-.35-.13-1.17-.97-1.51-1.74-1.73-5.19-1.53-9.31-4.49-12.59-8.81-1.57-2.07-3.59-3.7-6.57-2.47,2.73-2.55,5.46-5.1,8.19-7.64-.12,1.07-.49,2-.69,2.98-.12.6-.24,1.41.05,1.86,2.4,3.67,5.6,6.25,10.08,6.91,4.12.61,8.02-.32,11.79-1.77,4.72-1.82,9.32-3.91,14.02-5.79,2.42-.96,4.92-1.73,7.25-2.55-1.58-.31-3.35-.51-5.03-1.01-4.62-1.37-9.2-2.87-13.81-4.29-4.73-1.46-9.53-2.34-14.49-1.55-1.15.19-2.28.46-3.42.7,7.25-9.6,16.56-17.24,23.9-26.83.18.45.31.69.36.95.35,1.61,1.35,2.58,2.85,3.24,3.04,1.32,6.15,1.36,9.31.68,4.66-1,8.82-3.22,13.07-5.26,5.4-2.6,10.7-5.52,16.98-5.6-.1-.13-.14-.22-.2-.24-5.2-1.69-10.34-3.64-15.63-5.02-7.62-1.98-14.79-.8-21.18,4.09-.03.03-.12-.02-.44-.07,3.84-5.86,7.61-11.63,11.39-17.4.1.06.2.11.3.16-.22,2.7,1,4.79,2.75,6.64,1.87,1.96,4.15,2.74,6.84,2.25,2.79-.52,5.07-2.03,7.25-3.71,2.63-2.03,5.17-4.18,7.81-6.19,2.32-1.76,4.76-3.29,7.83-3.47.65-.04,1.29-.54,1.94-.83-.06-.13-.11-.27-.16-.4-1.7-.21-3.48-.57-4.84.87-.6.63-1.18.84-1.91.7-2.87-.55-5.74-1.18-8.61-1.73-2.12-.41-4.24-.87-6.39-1.07-3.81-.34-7.19.87-10.11,3.41.03-.29.09-.5.21-.68,1.42-2.48,2.86-4.94,4.28-7.43,3.44-6.1,6.63-12.3,8.22-19.2.08-.36.46-.66.71-.97.97-1.24,2.21-2.34,2.85-3.72.66-1.43.83-3.12,1.07-4.71.33-2.35.29-4.78,1.62-6.98.4.13.78.21,1.11.36,1.63.78,3.04.43,4.41-.66,2.02-1.61,3.26-3.74,3.94-6.15.9-3.19,1.58-6.45,2.4-9.67.61-2.4,1.23-4.79,3.3-6.47.81-.66.85-1.6.63-2.56Zm-24.69,37.29c-.91-3.4-1.22-6.82,0-10.26v10.26Zm-80.95,100.34c-1.93-2.62-1.77-6.5.35-9.53.31,2.13.66,4.22.9,6.33.12,1.19-.31,2.26-1.24,3.2ZM48.7,88.14c1.22,3.36.86,6.72,0,10.09v-10.09Zm-15.47-14.51c1.2,2.4,2.4,4.81,3.59,7.21-2.85-1.53-2.65-4.68-4.04-6.99.15-.07.3-.15.45-.22Zm.04,8.38c-1.13-1.94-2.11-4.01-2.86-6.13-.82-2.3-1.33-4.71-1.97-7.07.11-.05.22-.1.34-.15.81,1.59,1.68,3.15,2.44,4.78.82,1.78,1.4,3.68,2.36,5.39,1.12,2.03,2.54,3.9,3.78,5.79-1.62-.22-3.18-1.07-4.08-2.61Zm2.17-7.06c2.58,1.76,3.37,4.5,4.01,7.33-2.16-1.96-2.41-5.02-4.01-7.33Zm35.59,49.18c.84.96,1.68,1.94,2.66,3.05-1.67-.25-2.89-1.55-2.66-3.05Zm-.71-3.66c.91,1.07,1.8,2.13,2.83,3.36-2.27-.29-3.61-2.02-2.83-3.36Zm2.87,8.81c-1.03-.23-1.97-.56-2.16-1.91,1.39-.03,1.61,1.16,2.16,1.91Zm-1.46,3.67c1.31.15,1.82.78,2.01,2.31-1.33-.21-1.62-1.2-2.01-2.31Zm-.05-3.06c.66,1.1,1.97,1.24,2.25,2.55-1.55-.34-2.33-1.16-2.25-2.55Zm.35-13.71c2.95,3.71,3.52,8.21,4.19,12.76-1.43-.77-2.24-3.08-1.67-4.92.22-.71,0-1.13-.3-1.75-.95-1.94-1.74-3.97-2.59-5.95.12-.05.24-.09.36-.14Zm-1.94-1.08c.42,1.48.8,2.77,1.2,4.16-1.55-.42-2.02-1.97-1.2-4.16Zm-1.91,2.78c1.58,3.72.54,7.91,2.1,11.71-.44.05-.77.07-1.12.11.36,1.3,2.77,2.27.49,3.86,1.23,1.49,1.66,3.13,1.4,4.94-3.16-6.57-3.9-13.47-2.86-20.62Zm-9.72-3.63c1.15.06,1.04,1.16,1.67,2.03-1.52-.16-1.42-1.22-1.67-2.03Zm1.97-.43c-1.17-.26-1.85-1.31-1.74-2.71.66.36,1.34.74,2.17,1.2-.1.36-.26.94-.43,1.52Zm-1.46-4.89c.92.36,1.93.64,1.96,2.01-1.3-.17-1.39-1.34-1.96-2.01Zm-.02-2.92c.78.69,1.46,1.29,2.38,2.11-1.72-.24-2.37-.83-2.38-2.11Zm1.7-.34c-1.4-.88-1.96-2.1-2.39-3.58,1.54.12,2.09.96,2.39,3.58Zm-5.68,2.22c1.66.02,2.88,1.43,2.83,3.13-1.47.03-2.4-.97-2.83-3.13Zm2.11,6.41c-.66-1.11-2.11-1.51-1.94-3.1,1.79.34,2.57,1.48,1.94,3.1Zm-1.31-9.1c.67.79,1.27,1.51,2.04,2.41-1.68-.2-2.36-1.05-2.04-2.41Zm1.53-3.03c-1.35-.55-1.15-1.69-1.46-2.66,1.07.21,1.54,1.08,1.46,2.66Zm.26,2.69c-1.33-.24-1.79-.84-1.88-2.33,1.21.31,1.34,1.38,1.88,2.33Zm-12.42-5.57c-.49-.69-1.08-1.34-1.42-2.1-.48-1.01-.8-2.09-1.1-3.16-.1-.38-.69-1.07.33-1.24.04,0,.07-.27.05-.41-.58-3.79.4-7.45.89-11.14.09-.71.19-1.42.28-2.13.99,2.55.85,5.17.69,7.78-.25,4.11-.88,8.22.61,12.26-.1.06-.22.11-.32.16Zm1.85-.92c-2.18-4.98-.79-10.17-.81-15.29,2.51,4.95.98,10.16.81,15.29Zm2.84,11.47c-1.29-1.61-2.1-3.43-2.1-5.6.81,1.82,1.62,3.64,2.43,5.46-.11.05-.22.09-.34.14Zm1.69-2.53c.43-2.14,1.09-4.25,1.61-6.38.44-1.79.81-3.59,1.27-5.66.93,3.17.98,6.08-.28,8.89-.38.84-.44,1.58-.35,2.42.08.77.13,1.53.16,2.3.05,1.09-.18,2.06-1.28,2.65.59.51,1.14.92,1.61,1.42.21.22.23.6.34.91-.3.09-.6.23-.91.27-.47.04-.94,0-1.54,0-1.09-2.09-1.09-4.46-.63-6.83Zm1.08,7.74c1.7,1.01,2.6,2.47,3.46,4.01-1.37.4-2.61-1.04-3.46-4.01Zm6.89,17.96c-5.61-2.25-11.12-4.39-17.32-3.57,4.72-2.84,13.71-2.78,17.32,3.57Zm-12.33-1.88c.05-.08.08-.18.13-.27.34.11.81.12.96.36.25.37.29.89.42,1.34-.18.07-.35.14-.52.22-.33-.54-.66-1.09-.99-1.64Zm.29,4.96c-1.9-.34-2.48-1.48-1.78-3.06,1.65.43.82,2.11,1.78,3.06Zm.8-2.21c.89-.02,1.24.54,1.44,1.3.18.69.37,1.38.56,2.08-1.54.21-2.66-1.59-2-3.38Zm-9.83-1.85c1.41.15,2.83.23,4.22.48,1.33.22,1.71.99,1.25,2.25-1.9-.85-3.73-1.67-5.57-2.49.03-.07.07-.16.09-.23Zm5,4.3c3.17,1.32,6.34,2.64,9.65,4-3.88.12-6.82-1.81-9.65-4Zm7.4-1.28c.92.31,1.02.56,1.01,2.23-.1.04-.2.08-.3.12-.22-.74-.45-1.48-.71-2.35Zm3.98,3.07c-.18.13-.68.11-.81-.05-.51-.58-.92-1.24-1.47-2.03,1.38-.23,2.3.32,2.48,1.26.05.26-.02.68-.2.81Zm1.05-1.45c.95.36,1.67.65,2.57.99-1.37.68-1.96.47-2.57-.99Zm1.52-.76c-.72-.33-1.45-.74-2.02-1.28-.52-.5-.85-1.22-1.42-2.06-.19.77-.3,1.23-.41,1.68-1.07-.27-1.36-2.57-3-.76-.32-.71-.57-1.28-.84-1.9,2.36-.22,6.8,1.53,9.97,3.86-.7.78-1.5.8-2.26.45Zm1.86-7.83c-1.33-2.33-2.69-4.64-4-7.17.63.36,1.36.64,1.85,1.13.59.58,1.06,1.32,1.45,2.06,1.85,3.5,3.67,7.01,5.6,10.72-2.22-1.97-3.55-4.37-4.9-6.75Zm7.62-11.94c-.43,7.92-.33,15.78,2.29,23.39-2.68-2.75-4.05-6.05-4.27-9.84-.27-4.64.91-9.09,1.97-13.55Zm6.45,38.76c-.06.14-.11.28-.16.43-1.14-.33-2.38-.47-3.4-1.01-1.82-.97-3.77-.95-5.71-1.24-3.27-.46-6.54-.98-9.8-1.57-1.07-.19-2.02-.79-3.18-.1-.43.26-1.21-.06-1.82-.27,1.86-1.09,3.88-1.42,5.94-1.46,5.15-.1,9.85,1.58,14.48,3.57,1.23.52,2.42,1.09,3.64,1.65Zm-1.09,2.74c-.3.04-.62.17-.9.12-1.27-.24-1.94-1.11-1.76-2.44.86.52,1.63.94,2.32,1.44.22.16.23.58.34.88Zm-3.42-.27c-1.37.83-2.06.16-2.58-2.56,1.41-.24,1.77.11,2.58,2.56Zm-3.36.16c-1.65-.36-2.55-2.09-1.82-3.57,1.87.69,2.52,2.02,1.82,3.57Zm-2.98-.37c-.51-1.09-.92-1.95-1.38-2.94,1.35.43,1.84,1.39,1.38,2.94Zm-1.74-1.4c-1.24.33-1.83-.18-2.25-1.89,1.68-.33,1.5,1.24,2.25,1.89Zm-3.35-.62c-.76-.42-1.38-.85-.64-1.91.8.52,1.34.99.64,1.91Zm-13.72-4.24c8.09-6.54,19.79-5.03,28.08,1.26-9.13-3.56-18.35-5.12-28.08-1.26Zm3.18,2.11c3.05-.23,5.45,1.08,7.54,3.42.2-.55.32-.87.58-1.59.8.93,1.42,1.77,2.17,2.46.72.67,1.56,1.24,2.41,1.76.27.17.75,0,1.13-.02-.17-.36-.33-.74-.52-1.09-.07-.12-.22-.2-.4-.35.74-.6,1.14-.08,1.5.39.42.55.73,1.19,1.15,1.74.24.31.62.52.95.8.97-1.04-.41-1.33-.47-1.99q.78-.03,2.46,2.78c-6.92-1.3-12.46-5.36-18.51-8.3Zm19.49,8.31c.93-1.36-.47-1.63-1.07-2.29,1.05-.43,1.18-.31,2.63,2.29h-1.56Zm1.43-2.02c.98-.54,1.67-.36,2.56.61.32.34.72.59,1.09.88.21-.42.42-.84.63-1.26.06-.1.09-.22.21-.47.56.42,1.09.8,1.64,1.2-1.91,2.1-4.72,1.62-6.12-.95Zm5.17-2.55c.92.33,1.83.65,2.74.96-.61.88-1.81.65-2.74-.96Zm15.41-12.74c1.44-.42,2.46.51,2.13,1.92-1.34-.05-1.79-.9-2.13-1.92Zm.13,5.98c-.21-.34,0-.93.05-1.58.75.32,1.16.49,1.8.75-.18.45-.38.94-.58,1.43-.44-.2-1.06-.27-1.26-.6Zm2.26,5.89c-.29-.23-.57-.47-.87-.71.29-.8,1.83-1.02.75-2.28,1.19.49,1.19,1.26.12,2.99Zm.46-4.29c-.06-1.48.06-1.58,1.63-1.6,0,1.6-.29,1.88-1.63,1.6Zm2.01-2.17c-.74-.59-1.24-1-1.76-1.4.04-.07.07-.14.11-.21.25.02.51.07.76.04.33-.05.64-.18.95-.27-.21-.3-.36-.78-.63-.85-.65-.19-1.08-.4-.94-1.22.7-.05,1.39-.1,2.55-.18-.35,1.37-.67,2.62-1.05,4.09Zm1.07-5.34c-.09.08-.19.17-.28.24-.62-.15-1.24-.3-1.89-.46-.12-1.14,1.53-2.32-.14-3.41,2.31.38,1.3,2.57,2.31,3.62Zm-1.51-4.81q-.99-.04-1.71-2.1c1-.51,1.15-.33,1.71,2.1Zm-2.33,3.94c-1.89-.94-2.28-1.52-1.67-2.51,1.95,1.08,2.29,1.59,1.67,2.51Zm-.67-5.86c-1.31.28-1.54.04-2.48-2.6,1.66.17,1.84,1.57,2.48,2.6Zm-5.95-3.39c.05.29.12.58.13.86.15,4.36.28,8.71.47,13.07.06,1.34.28,2.68.43,4.01.1.98.09.99-1,1.07.51,1.06.98,2.01,1.46,2.97-.15.09-.3.18-.44.27-.25-.29-.53-.56-.75-.88-1.87-2.7-2.34-5.8-2.11-8.95.31-4.15.93-8.26,1.41-12.39.13,0,.26-.02.39-.03Zm-4.52,15.85c-.13-4.02.86-7.89,1.7-11.77.36-1.65.73-3.29,1.09-4.94.14.02.27.03.41.05-.11,1.29-.12,2.6-.35,3.87-.69,4-1.4,7.98-1.24,12.06.11,2.82.75,5.48,2.13,7.97.23.42.21.99.3,1.49-.16.04-.32.07-.47.1-2.51-2.4-3.47-5.46-3.58-8.83Zm5.91,12.08c-.09.07-.19.16-.29.24-.61-.72-1.22-1.44-1.88-2.23q.8-.07,2.17,1.98Zm1.6,4.11c-.67-.65-1.31-1.24-1.98-1.88,1.38.02,2.1.69,1.98,1.88Zm-.03-16.61c-1.43-.8-1.58-1.33-.68-2.42,1.35.59,1.53,1.19.68,2.42Zm-.79-4.65c-.11,0-.22,0-.34,0-.2-1.05-.56-2.11-.57-3.15,0-2.12.19-4.25.27-6.37.04-.88,0-1.77,0-2.66.09-.03.19-.05.28-.07.65,2.9,1.31,5.8,2.04,9.05-.8-.31-1.3-.51-1.86-.72-.39.95.32,1.24.8,1.67.44.39.8.89,1.22,1.38-.74.55-1.94-.86-1.84.89Zm2.5-6.64c.72.61,1.43,1.23,2.15,1.84-.11.11-.22.23-.32.35-.95-.36-1.93-.7-2.13-1.85.1-.11.21-.22.3-.34Zm2.84,33.16c-.7-.58-1.4-1.17-2.11-1.75.07-.1.15-.22.22-.32.72.57,1.44,1.15,2.16,1.72-.08.11-.18.23-.27.35Zm18,29.39c.32-.38.65-.77.95-1.16,1.1-1.39,1.71-1.36,3.16.49-.85-.23-1.38-.39-1.91-.53-1.03,2.73-3.77,3.77-5.59,5.74-.07-.07-.16-.15-.24-.22,1.21-1.43,2.41-2.86,3.62-4.3Zm.5,4.25c-.5,1.24-1.74,1.2-2.73,1.57l-.2-.36c.91-.51,1.82-1.04,2.72-1.56.07.12.14.23.21.36Zm-6.92,4.32c.79-.29,1.56-.6,2.35-.89,1.94-.72,3.87-1.44,5.82-2.14.21-.07.51-.08.7.02.6.33,1.16.73,1.78,1.12-3.36,1.61-6.96,1.84-10.65,1.89Zm11.48-2.28c-.54-.59-.95-1.03-1.36-1.46.8-.75,1.38-.59,2.5.77-.42.25-.83.51-1.14.69Zm-2.24,30.2c-.11-.06-.22-.11-.33-.18.19-1.51.95-2.7,2.26-3.52-.65,1.23-1.29,2.46-1.94,3.7Zm5.14-52.31c1.32.77,1.14,2.11,1.44,3.3-1.42-.32-1.92-1.48-1.44-3.3Zm4.09,5.62c-1.67-.63-1.6-1.59-1.38-2.92.54.26,1.24.38,1.33.69.2.62.06,1.34.06,2.23Zm-1.82-6.17c1.67.35,2.18,1.21,1.42,2.59-.53-.97-.92-1.68-1.42-2.59Zm4.21.6c-1.31-.27-1.76-.98-1.51-2.38.51.11,1.05.22,1.81.37-.09.62-.2,1.31-.3,2Zm.16-3.33c-.1.07-.21.13-.32.21-.6-.49-1.2-.96-1.96-1.57.55-.09.86-.15,1.45-.24-.96-1.29-1.83-2.45-2.86-3.82.96.33,1.54.52,2.44.82.36,1.33.81,2.97,1.25,4.6Zm-2.17-6.22c-.74-.62-1.48-1.24-2.22-1.85.13-.15.25-.3.37-.45.73.63,1.46,1.26,2.18,1.9-.11.13-.22.26-.34.4Zm-.95-3.47c-1.49,0-2.05-.61-2.26-2.37,1.28.29,1.75,1.27,2.26,2.37Zm-3.25,1.91c.07,1,.15,1.98.23,3.13-.93-.84-.97-1.92-.23-3.13Zm-.19,4.55c1.14.61,1.14,1.03-.06,2.08.49,1.3,1.94,2.25,1.14,3.85-2.04-.94-1.74-3.58-1.09-5.92Zm-1.82-1.07c.12,0,.24,0,.36,0v12.35c-1.69-4.03-1.38-8.18-.36-12.34Zm-9.86,2.5c-.12.06-.25.1-.37.15-.27-.75-.53-1.5-.82-2.31,1.16.11,1.48.76,1.2,2.16Zm-1.33-7.51c.53.38,1.08.77,1.62,1.14-.09.13-.19.27-.28.4-.93.13-1.2-.61-1.55-1.24.07-.1.14-.2.22-.3Zm-.22-2.96c.84.59,2.03.95,1.79,2.54-.79-.88-2.11-1.09-1.79-2.54Zm.3-2.69c.55.72,1.05,1.37,1.69,2.2-1.57-.2-2.1-.95-1.69-2.2Zm-.03-13.53c.15-.07.3-.13.45-.21.27.76.55,1.52.82,2.26l-.36.17c-.79-.51-.6-1.49-.91-2.23Zm1.34,6.87c.16-.16.32-.31.49-.47.53.54,1.07,1.09,1.6,1.64-.14.15-.28.29-.41.43-.56-.53-1.12-1.07-1.67-1.6Zm1.92,19.12c-.19-.04-.36-.07-.55-.1.11-1.37.23-2.72.36-4.33.41.42,1.09.83,1.06,1.13-.17,1.12-.56,2.21-.87,3.3Zm1.09-5.16c-.61-.43-1.09-.76-1.56-1.09.5-.34.98-.68,1.63-1.12-.6-.61-1.18-1.21-1.76-1.82.06-.1.11-.22.18-.32.63.22,1.26.42,1.94.65-.14,1.24-.27,2.37-.42,3.7Zm1.17-17.01c.72,1.68,1.37,3.43,1.73,5.23.95,4.62.25,9.13-1.4,13.52-.04.09-.11.18-.33.48,0-3.85.13-7.43-.05-11-.09-1.82-.66-3.64-1.19-5.41-.33-1.05-.73-1.95.58-2.84-1.23-.18-1.88-.65-1.72-1.82,1.11.17,1.96.89,2.38,1.85Zm-1.72-3.56c-1.74-.36-2.83-1.75-4.21-5.43,1.14.43,3.01,2.84,4.21,5.43Zm-2.28,23.25c-1.1.02-1.57-.51-1.93-2.25,1.32.33,1.4,1.44,1.93,2.25Zm-5.17-17.47c.27-1.5.62-2.98.94-4.47,1.23,3.4,1.09,6.83,1.04,10.27-.05,3.69,0,7.38,0,11.02-.99-1.12-1.64-2.61-2.08-4.19-1.17-4.22-.64-8.43.11-12.63Zm-2.83,3.39c.39-1.75.91-3.46,1.37-5.18.1,0,.2.03.3.05-.22,2.72-.45,5.44-.66,8.15-.24,3.23-.11,6.43,1.2,9.43.63,1.43,1.53,2.74,2.32,4.12-2.63-1.33-4.33-3.47-5.04-6.38-.85-3.43-.25-6.82.51-10.18Zm-19.51,30.91c1.73-.31,3.21.07,4.47,1.7-1.89.16-3.12-.95-4.47-1.7Zm4.85.75c1.33-.22,1.97.31,2.49,1.94-1.22.25-1.91-.26-2.49-1.94Zm-.62-3.25c3.95-2.6,11.95-3.56,14.63-1.18-2.8,0-5.57,1.46-8.25-.16-1.59,1.68-1.61,1.69-3.12.56-.98,1.22-1.45,1.33-3.26.78Zm19.91-.36c-.79,0-1.69.41-2.09-.8-.05-.16-.62-.16-1.13-.28.18.51.26.76.37,1.09-1.22.07-1.16-.97-1.59-1.53.05-.1.09-.22.14-.33,1.48.47,2.96.94,4.44,1.39-.05.16-.09.32-.14.47Zm1.94,2.39c-1.26.44-1.59.35-2.46-.62.8-.69,1.29-.58,2.46.62Zm-6.02-.84c.37.39.51,1.03.74,1.56-.17.1-.35.21-.51.3-.63-.7-1.26-1.41-1.89-2.12.07-.13.15-.27.22-.41.5.22,1.1.31,1.44.67Zm-7.4,3.4c.69.48,1.34.9,1.92-.17.37.45.66.79,1.01,1.19-1.32,1.23-2.79.05-4.1.44-.31-.7-.59-1.34-.89-2.04.79-.47,1.42.16,2.06.58Zm-3.63-3c1.09-.71,1.96-.4,2.64.92-1.61.31-2.08.15-2.64-.92Zm2.84-.89c1.07-.29,1.5.15,1.97,2.03-1.02.15-1.52-.36-1.97-2.03Zm2.96-.41c.57,1.05,1.01,1.86,1.45,2.68-1.26.22-1.94-.78-1.45-2.68Zm2.59,6.15c-.55-.75-.95-1.28-1.38-1.87,1.24-.3,1.69.22,1.38,1.87Zm-.36-6.02c.5.79.95,1.51,1.51,2.4-1.66-.12-2.2-1.09-1.51-2.4Zm-7.64,5.57c-.6-.68-1.14-1.42-1.87-2.38,1.57.05,2.47.71,2.7,1.72.05.22.02.6-.12.7-.15.11-.59.09-.71-.05Zm13.41,1.99c-3.24,1.15-6.53.84-9.82.35-1.02-.15-2.02-.4-3.03-.61,5.57-.51,11.24-.23,16.78-2.8-1.07,1.68-2.39,2.53-3.92,3.06Zm-1.3-11.14c-5.27-.88-10.47-.28-15.64.8-3.13.66-6.24,1.41-9.37,2.11-.43.09-.89.05-1.33.07-.02-.12-.04-.23-.05-.35.26-.13.51-.3.8-.38,4.29-1.36,8.59-2.74,12.9-4.03,3.93-1.19,7.91-1.82,11.96-.56,2.24.7,4.19,1.85,6.06,3.5-1.9-.41-3.61-.86-5.34-1.15Zm-2.62-10.5c.52.39,1.08.76,1.56,1.2,4.67,4.27,9.26,8.62,14.01,12.81,2.85,2.53,5.87,4.89,8.94,7.16,1.21.89,1.61,2.03,1.96,3.39-9.54-7.39-18.15-15.79-26.46-24.55Zm28.89,24.97q.87.07,2.42,3.13c-1.78-.35-2.44-1.25-2.42-3.13Zm3.22,2.23c2.52.14,2.07,2.62,3.27,3.85-1.71-.2-3.12-1.85-3.27-3.85Zm3.77,2.42c1.9.83,2.22,2.78,3.34,4.45-2.84-.41-2.24-3.06-3.34-4.45Zm7.47,7.5c-.85-.51-1.7-1.01-2.67-1.59,1.11-1.89-1.21-2.32-1.49-3.84,2.56.95,3.04,3.4,4.4,5.1-.08.11-.17.22-.24.33Zm.63-2.17c.1-.06.2-.1.29-.16.82,1.44,1.64,2.88,2.48,4.37-1.56.21-2.04-1.53-2.77-4.21Zm2.81,1.43c1.73.94,2.03,2.53,2.81,3.77-.55.75-.95.52-1.23-.07-.52-1.14-.99-2.3-1.58-3.7Zm-28.37,22.56c1.2-1.64,1.52-4.06,4.03-4.53-1.38,1.49-1.32,4.2-4.03,4.53Zm4.39-2.01c-.08-.07-.18-.13-.26-.2.67-1.08,1.34-2.14,2.01-3.21.12.07.23.15.36.22-.78,1.01-.87,2.47-2.11,3.18Zm1.64-.34c1-1.43,1.99-2.84,3.16-4.51,0,2.46-1.5,4.43-3.16,4.51Zm4.1-1.11c-.37-2.09,2-4.98,4.33-5.06-1.49,1.8-2.15,4.05-4.33,5.06Zm4.37-1.77c-.32-2.15,1.92-5.01,4.37-5.55-1.01,2.26-2.28,4.18-4.37,5.55Zm3.6-1.98c1.75-1.82,2.11-4.86,5.24-5.91-1.47,2.53-2.07,5.35-5.24,5.91Zm4.3-2.11c1.7-1.53,1.89-4.27,4.23-5.31-1.35,1.82-1.51,4.56-4.23,5.31Zm3.84-1.72c-.09-.07-.19-.13-.28-.19,1.24-1.87,2.49-3.74,3.73-5.61.1.07.21.15.3.22-.89,2.11-1.68,4.29-3.75,5.58Zm3.09-1.82c.61-1.09,1.22-2.18,1.83-3.28.79.6-.21,2.5-1.83,3.28Zm5.17-2.76q-.98-.89-.08-2.01.87,1,.08,2.01Zm37.91,16.57c-.61-1.18-1.21-2.36-1.82-3.54,1.06.25,1.98,1.79,1.82,3.54Zm-1.39-29.77c.77-.48,1.41-.87,1.9-1.17,3.01,1.05,5.91,2.06,8.81,3.07-3.69-.05-7.3-.29-10.71-1.9Zm3.62-2.12c1.16-.51,1.98-.09,2.78,1.37-.93-.45-1.85-.91-2.78-1.37Zm-1.77-6.71c.2-.1.65-.02.79.15,1.74,2.11,3.44,4.26,5.16,6.39,0,.02,0,.07-.05.3-1.87-2.13-4.72-3.13-5.69-5.9-.55.16-1.09.31-1.61.47-.07-.12-.12-.25-.19-.38.52-.35,1.03-.74,1.59-1.02Zm-1.26,6.91c-.47.51-.88.96-1.38,1.52-.24-.14-.66-.38-1.08-.63.76-1.29,1.49-1.54,2.46-.89Zm10.22-42.28c-.09-2.91.08-5.78.94-8.6,1.09,4.12,1.95,8.27,1.86,12.53-.05,2.84-.57,5.6-2.16,8.06-.19.29-.38.58-.59.85-.07.08-.19.13-.38.27,1.03-4.42.48-8.77.34-13.11Zm-1.23-15.33c-1.06,2.09-1.48,4.66-4.21,5.49,1.39-1.84,2.12-4.19,4.21-5.49Zm-1.81,23.8c-.3-.99,0-1.4,1.69-2.4q.12,1.12-1.69,2.4Zm1.37-18.56c-.26.77-.1,1.68-.92,2.24-.11-.05-.22-.08-.33-.12.26-.77.51-1.53.78-2.28.15.06.31.11.47.17Zm-1.36,6.98c-.55.51-1.1,1.01-1.66,1.52-.09-.1-.19-.22-.29-.32.33-.8.76-1.48,1.68-1.6.08.14.18.27.26.4Zm-4.2,15.83c-.08.03-.17.05-.25.07-.46-1.68-.99-3.35-1.36-5.06-.9-4.2-.52-8.36.84-12.42.52-1.56,1.41-2.89,3.13-3.48.11,1.31,0,1.47-1.54,1.84,1.67,1.18.58,2.4.21,3.59-1.43,4.59-1.25,9.29-1.05,13.99.02.43.07.85.09,1.27,0,.07-.05.13-.07.19Zm2.35,3.18c-.36-1.15-.74-2.3-1.11-3.48.51-.32.92-.58,1.31-.83.11,1.44.22,2.84.33,4.25-.18.03-.35.05-.52.07Zm-.65-8c-.43.4-.66.8.1,1.11.36.15.66.39,1,.59-.35.24-.69.5-1.05.74-.12.08-.26.15-.51.29-.14-1.15-.27-2.24-.42-3.53.62-.23,1.28-.48,1.94-.73.08.12.16.25.23.37-.44.38-.88.76-1.3,1.15Zm3.85-4.49c.44,1.25-.05,1.99-1.67,2.27.64-.87,1.13-1.53,1.67-2.27Zm.1,5.68c.07.1.14.2.22.3-.36.64-.63,1.39-1.59,1.24-.08-.11-.18-.23-.26-.35.54-.39,1.09-.8,1.64-1.19Zm.22,2.26c-.13,1.05-.4,1.98-1.82,2.28.51-1,.67-2,1.82-2.28Zm-.32,2.95c-.31.95-.56,1.71-.89,2.71-.77-1.41-.45-2.28.89-2.71Zm-11.48-.29c1.65,3.03,1.5,9.57,0,12.29v-12.29Zm-1.59-3.29c.71,1.12.67,2.11-.28,3.12.11-1.19.2-2.13.28-3.12Zm.05,4.42c1.1,2.86.66,5.26-.94,6.03-.85-1.64.64-2.6,1.1-3.92-1.18-1-1.19-1.25-.17-2.11Zm-6.27,6.63c-.1-.7-.21-1.39-.3-2.02.73-.15,1.24-.26,1.75-.36.33,1.3-.08,2.01-1.45,2.39Zm.21-3.16c-.12-.07-.24-.13-.36-.2.43-1.63.87-3.25,1.3-4.88.1.07.22.13.33.19.55-.2,1.11-.39,1.7-.6-.11,1.51-1.89,2.15-2.4,3.66.43.09.75.17,1.28.28-.68.57-1.27,1.06-1.85,1.54Zm3.54,2.57c.2,1.11-.1,1.65-1.2,2.15-.45-1.03-.11-1.64,1.2-2.15Zm-1.01,6c-.57-.65-.8-1.38-.34-2.09.22-.34.83-.42,1.38-.67.22,1.31.26,2.27-1.04,2.76Zm-.66-14.97c-.12-.14-.24-.27-.36-.41.72-.64,1.44-1.27,2.17-1.91.11.13.23.26.35.39-.72.65-1.43,1.28-2.15,1.93Zm.79-3.72c.69-.77,1.38-1.53,2.08-2.29.15,1.82-.48,2.53-2.08,2.29Zm2.18,16.54c.26-1.22.1-2.54,1.42-3.31.49,1.75,0,2.89-1.42,3.31Zm-9.25-.64c2.18,4.53,2.82,8.53.73,9.8-.23-3.24-.49-6.52-.73-9.8Zm-17.55,36.02c-.62-.95-1.24-1.88-1.82-2.84-.07-.12.07-.37.12-.57.18.09.43.14.51.28.56.95,1.09,1.91,1.62,2.86-.15.09-.3.18-.44.27Zm29.76,12.63c-2.69-.31-2.61-3.07-4-4.54,2.47.47,2.86,2.84,4,4.54Zm-6.09-5.4c.66,1.06,1.34,2.12,2.03,3.23q-.85-.1-2.32-3.01c.09-.07.19-.15.29-.22Zm-2.79-1.12c.95,1.37,1.88,2.74,2.82,4.1-1.48.14-3.07-1.9-2.82-4.1Zm-1.06,3.14c-2.31-1.09-3.01-3.35-4.44-5.11,2.15-.05,4.24,2.35,4.44,5.11Zm-4.41-1.83c-1.93-1.17-3.42-3.04-4.42-5.47,2.1.13,4.37,2.9,4.42,5.47Zm-3.75-2.02c-3.16-.54-3.71-3.41-4.93-5.67,2.83.87,3.22,3.84,4.93,5.67Zm-4.04-2.11c-1.65-.02-3.75-2.69-4.32-5.39,2.18,1.27,2.45,3.9,4.32,5.39Zm-3.77-1.89c-1.41-.11-3.64-3.25-3.7-5.52,1.23,1.83,2.45,3.67,3.7,5.52Zm-4-7.64c-.27.61-.66.83-1.21.14.68-1.31,1.05-2.85,2.77-3.8-.59,1.38-1.06,2.53-1.56,3.66Zm1.97-.75c-.12-.07-.23-.14-.36-.22.84-1.46,1.69-2.91,2.54-4.37.11.09.23.19.35.28-.84,1.43-.58,3.57-2.53,4.3Zm2.99-2.18c-.07-.1-.14-.22-.22-.32,1.36-1.7,1.83-4.16,4.43-5.14-.36,1.51-2.55,1.95-1.51,3.84-.89.53-1.8,1.08-2.7,1.62Zm4.14-3.06c1.19-1.66,1.46-3.68,3.41-4.48-1.13,1.39-.53,4.05-3.41,4.48Zm4.06-3.04c1.48-3.7,1.62-3.86,3.13-3.71-.42,2.1-1.57,3.43-3.13,3.71Zm4.06-2.95c.36-1.96,1.08-2.98,2.23-3.17.1,1.79-.57,2.75-2.23,3.17Zm27.77-6.26c-1.77-.5-3.28-1.41-4.5-3.26,5.54,2.55,11.21,2.32,16.81,2.64-4.08,1.07-8.16,1.77-12.31.62Zm9.59-3.56c.6-.38,1.3-.61,1.96-.9.04.09.08.19.12.28-.27.64-.54,1.26-.87,2.01-1.3-.32-2.77.8-4.17-.41.42-.46.7-.77,1.03-1.13.59.88,1.22.61,1.94.15Zm-1.42-1.91c.8-.82.54-2.4,2.23-2.12-.39,1.67-.95,2.26-2.23,2.12Zm2.44-.14c.58-1.32,1.29-1.62,2.71-1.07-.58,1.36-1.64,1.19-2.71,1.07Zm-4.65.43c.46-.83.92-1.67,1.43-2.61.6,1.62-.09,2.72-1.43,2.61Zm.24,1.44c-.41.66-.76,1.22-1.22,1.94-.55-1.41-.2-1.93,1.22-1.94Zm-.98-2.24c-.22.36-.75.52-1.14.77-.09-.11-.19-.22-.29-.33.46-.71.93-1.43,1.38-2.14.14.05.28.08.42.13-.11.53-.11,1.13-.37,1.57Zm-3.23.86c-.18-.09-.35-.2-.52-.29.21-.51.28-1.13.63-1.5.37-.39,1-.54,1.52-.8.08.14.18.28.26.42-.63.72-1.25,1.45-1.88,2.17Zm-1.07-3.5c.12-.26.23-.51.41-.91-1.35-.24-1.9,2-3.35.8,1.32-1.02,2.87-1.33,4.53-1.51-.51,1.53-.65,1.67-1.59,1.62Zm-2.26,1.79c.03.13.05.26.07.4-.8.21-1.59.42-2.39.63.63-1.4,1.4-1.64,2.31-1.03Zm14.41,4.46c-.19.21-.66.15-1.01.21.02-.32-.06-.67.06-.96.45-1.14,1.45-1.65,2.36-1.18-.46.66-.87,1.36-1.4,1.94Zm-1.31-7.17c-2.69,1.62-5.49.21-8.28.18,2.13-2.22,9.91-1.67,14.77,1.27-1.42.12-2.71.75-3.39-.91-1.66,1.17-1.87,1.13-3.1-.54Zm3.15,6.62c.47-1.66,1.17-2.23,2.41-2.03-.28,1.46-.99,2.08-2.41,2.03Zm3.02-1.28c1.1-1.37,2.55-1.79,4.24-1.59-1.07,1.23-3.19,2.03-4.24,1.59Zm-16.59-9.47c3.88-1.23,7.72-.76,11.5.38,4.1,1.24,8.15,2.59,12.23,3.89.67.22,1.36.38,2.04.57-.04.16-.07.33-.11.49-.46-.05-.93-.06-1.38-.15-4.88-.97-9.72-2.1-14.63-2.9-5.01-.82-10-.44-14.87,1.1-.14.04-.29.06-.49.09.86-1.22,3.48-2.78,5.71-3.48Zm-24.48,16.41c.35-1.35.68-2.55,1.97-3.42,5.34-3.53,9.9-8,14.55-12.37,3-2.83,6.15-5.52,9.23-8.26.28-.25.61-.44.91-.66-8.39,8.8-17.06,17.25-26.66,24.7Zm26.46-29.48c-.6,3.07-2.4,5.28-5.14,6.77-.04-.09-.09-.18-.07-.2,3.17-3.67,3.93-8.03,3.63-12.68-.16-2.55-.38-5.08-.57-7.63-.03-.35,0-.71,0-1.06,1.56,4.83,3.17,9.64,2.16,14.79Zm6.03-1.05c-.08-.11-.18-.22-.27-.33.72-.6,1.44-1.2,2.16-1.8.07.1.14.21.22.3-.7.61-1.4,1.22-2.11,1.82Zm6.47-19.39c.26-3.57.43-7.15.61-10.73.12-2.42.19-4.85.28-7.26.11-.02.22-.03.35-.04.18,1.09.4,2.18.52,3.28.38,3.52.83,7.04,1.06,10.57.16,2.4-.4,4.75-1.62,6.89-.32.55-.72,1.06-1.24,1.8-.59-1.6.78-2.24,1.02-3.4-.87.09-1.05-.28-.98-1.11Zm-4.05-11.2c.84.88.44,1.54-1.55,2.54-.62-.94-.5-1.13,1.55-2.54Zm-1.69-.69c.68-.65,1.37-1.28,2.2-2.05.1,1.33-.42,1.86-1.96,2.3-.08-.08-.16-.17-.23-.25Zm2.16,4.06c-.21,1.07-.75,1.79-2.11,1.89,0-.44-.17-1.02.04-1.21.51-.47,1.18-.76,1.79-1.12.09.15.19.29.29.44Zm-2.68-6.98q-.49,2.26-1.7,2.11.77-2.37,1.7-2.11Zm-.9,3.39c-1.54,1.09-.07,2.24-.09,3.38-.64.16-1.28.32-1.93.48.68-1.35-.27-3.48,2.02-3.86Zm-2.2,4.88c.98.06,1.64.1,2.61.16-.25.42-.4.8-.66,1.09-.31.35-1.03.67-.99.9.16.86.82.31,1.3.28.1,0,.22.04.6.09-.62.53-1.09.95-1.88,1.63-.36-1.58-.66-2.84-.97-4.15Zm1.4,4.67c1.5-.05,1.59.04,1.65,1.53-1.36.39-1.74.04-1.65-1.53Zm2.1,5.83c-1.09-1.51-1.1-2.48.13-2.99-1.22,1.33.36,1.5.73,2.3-.33.27-.59.48-.86.69Zm2.26-5.92c-.19.35-.92.73-1.21.61-.36-.15-.5-.8-.78-1.32.71-.3,1.15-.49,1.83-.78.07.56.34,1.13.15,1.49Zm-1.23-12.52c.55-1.82,1.12-2.47,2.26-2.55-.45,2.11-.97,2.69-2.26,2.55Zm2.61,6.63c-.14,0-.29.04-.47.07-.46-1.67,2.22-1.58,1.76-3.28-.6.2-1.14.37-1.89.63.71-3.21,1.38-6.19,2.04-9.17.06.02.12.05.18.07.13,3.12.31,6.23.36,9.35.04,1.71-.44,3.28-2.02,4.29-.12.07-.25.11-.51-.02.36-.31.75-.58,1.05-.94.23-.26.36-.62.52-.93-.34-.02-.68-.05-1.02-.06Zm.89,2.93c.99,1.01.88,1.51-.55,2.44-.95-1.16-.81-1.71.55-2.44Zm-.67,19.02c-.02-1.19.56-1.74,2.14-1.96-.81.75-1.45,1.33-2.14,1.96Zm1.64-4.11c.8-.53.63-2,1.96-2.04-.57.76-.75,1.89-1.96,2.04Zm1.95-3.25c.04-.5-.07-1.08.15-1.47,2.13-3.71,2.54-7.76,2.1-11.89-.33-3.14-.94-6.26-1.35-9.4-.12-.91-.02-1.86-.02-2.79.1,0,.22,0,.32,0,.99,5.53,2.87,10.92,2.76,16.63-.07,3.42-1.06,6.52-3.57,8.96-.13,0-.26-.02-.38-.03Zm7.52-.88c.95-.34,1.88-.67,2.81-1.01-.9,1.55-1.89,1.8-2.81,1.01Zm1.77,2.56c.58-.45,1.09-.82,1.57-1.2.15.13.24.17.26.23.6,1.82.58,1.81,1.9.46.67-.68,1.42-1.24,2.44-.59-1.03,2.53-3.92,3.11-6.18,1.09Zm1.76-2.65c-.02-.23.07-.5.15-.72.06-.13.18-.26.31-.34.68-.4,1.38-.8,2.19-1.24.09,1.52-.92,2.62-2.19,2.55-.16,0-.45-.14-.46-.24Zm3.42-.23c.62-2.36,1.16-2.91,2.53-2.59-.36,2.55-1.09,3.31-2.53,2.59Zm2.47,3.97h-1.49c.67-2.02,1.41-2.74,2.55-2.38-.71.7-2.01,1.01-1.06,2.38Zm2.74-7.37c.53,1.62-.22,3.1-1.89,3.57-.67-1.7.12-3.15,1.89-3.57Zm-1.74,7.17c.93-.8.83-2.45,2.43-2.89-.35.74-.63,1.34-.9,1.93.11.07.23.14.36.21,1.01-.26,1.34-1.21,1.84-1.97.41-.62.76-1.36,1.75-1.03-.03.14-.03.22-.07.28-.26.43-.54.86-.81,1.29.55-.05,1.24.09,1.64-.18,1.06-.76,2.01-1.67,2.97-2.55.39-.36.67-.83,1.19-1.49.21.71.29,1.01.43,1.51.36-.27.7-.46.96-.72,1.84-1.86,4.06-2.72,6.69-2.55-6.07,2.93-11.62,7.02-18.48,8.18Zm4.15-6.85c-.4.87-.8,1.74-1.21,2.61-.12-.05-.24-.1-.36-.15-.12-1.15.26-2.04,1.57-2.46Zm.38,1.44c.76-.67.65-2.16,2.2-1.94-.18,1.6-.85,2.23-2.2,1.94Zm4.01-2.57c.75,1.07.1,1.49-.59,1.96-.68-.9-.22-1.4.59-1.96Zm-1.22-6.5c5.26-.5,9.88,1,14.11,4.03-9.52-3.69-18.72-2.12-27.95,1.55,1.88-2.17,8.59-5.1,13.84-5.59Zm-3.69,3.75c4.16-1.03,8.31-1.23,12.61.54-1.06.68-1.87.58-2.74.23-.33-.13-.77-.26-1.06-.15-3.51,1.38-7.21,1.66-10.9,2-2.15.21-4.29.28-6.27,1.36-.95.51-2.11.6-3.24.69,3.68-2.05,7.51-3.67,11.59-4.68Zm3.82-39.37c0-1.77,1.06-3.04,2.65-3.25.19,1.61-.97,3.07-2.65,3.25Zm2.94.43c-.69.9-1.38,1.79-2.12,2.74-.85-1.42-.04-2.68,1.78-3.04.11.1.23.2.35.3Zm-1.18-11.99c-.07,1.05.02,2.18-1.45,2.69.28-1.21.28-2.27,1.45-2.69Zm.06,2.91c.29,1.47-.27,2.22-1.78,2.44.7-.96,1.24-1.7,1.78-2.44Zm.17,2.79c.43,1.26-.25,2.16-1.99,2.42.76-.93,1.36-1.65,1.99-2.42Zm-2.5-3.08c-.32,1.43-.95,2.61-2.36,3.59.36-2.78.93-3.62,2.36-3.59Zm-.66,4c.12,1.04-.52,1.67-1.8,1.92.52-.56,1.14-1.22,1.8-1.92Zm.21,2.73c-.63.8-1.17,1.51-1.84,2.38-.36-1.33.14-1.88,1.84-2.38Zm-2.17,2.84c1.35,1.17,1.38-.73,2.27-.66.08,1.46-.57,2.46-1.79,2.78-.14-.61-.28-1.21-.49-2.12Zm1.01,4.44c.37-.77.32-1.75,1.4-2.08.04,1.47-.3,1.98-1.4,2.08Zm-10.14-1.11c.81,2.26.36,3.75-1.18,4.24.38-1.37.74-2.67,1.18-4.24Zm-3.58,12.13c.97-1.11,1.81-2.08,2.65-3.04.22,1.53-.99,2.82-2.65,3.04Zm2.61.2c-.12,1.38-1.11,1.66-2.11,1.91.56-.74.73-1.94,2.11-1.91Zm-2.06-3.57c.99-1.19,1.88-2.25,2.84-3.39.65,1.54-.69,3.21-2.84,3.39Zm-1.97,4.11c-.22.41-.58.74-.99,1.04.51-4.56,1.12-9.05,4.05-12.78.15.08.3.16.45.23-1.01,2.14-2.04,4.27-3.01,6.42-.12.26-.07.65.02.95.42,1.46.18,2.84-.51,4.15Zm1.13,7.43c.46-1.24.7-2.28,2.18-2.47-.27,1.22-.63,2.14-2.18,2.47Zm.44-2.74q-.36-.84,1.96-2.5c.02,1.52-1.23,1.77-1.96,2.5Zm1.98,5.99c.51-1.68,1.02-3.38,1.57-5.24q-.89-.92.83-3.59c-.36-.06-.66-.1-.86-.14.49-3.94.97-7.86,1.46-11.79.16.03.32.05.48.07.86,7.2.22,14.19-2.93,20.82-.19-.04-.36-.07-.55-.12Zm6.26-6.08c-.59,2.67-2.08,5.4-4.01,7.21,1.41-3.97,2.24-7.79,2.38-11.7.14-3.88.03-7.79.11-11.69,1.19,5.32,2.77,10.61,1.53,16.17Zm7.02,5.16c.71-.3,1.43-.61,2.15-.91-.25,1.39-1.05,1.52-2.15.91Zm-.08-1.56c-.4.03-.82-.28-1.54-.55,3.35-1.98,6.36-3.85,10.31-4.08-.36.77-.63,1.33-.95,2.01-1.64-1.66-1.94.41-2.95.8-.14-.48-.28-.95-.52-1.81-.96,2.12-2.25,3.48-4.35,3.62Zm10.07-3.08c-.55-1.5-.3-1.92,1.24-2.18-.44.77-.77,1.34-1.24,2.18Zm2.62-.02c.62,1.68.13,2.65-1.47,3.09q.36-2.47,1.47-3.09Zm-2.62.81c.51,1.09.23,2.02-.41,2.81-.35.42-.96.63-1.46.93-.09-.11-.19-.23-.28-.35,1-.92.16-2.92,2.15-3.39Zm-2.56,1.35c-.23.74-.46,1.49-.69,2.23-.15-.05-.3-.1-.45-.16.31-.73-.07-1.7.85-2.23.09.05.2.1.29.16Zm-3.04,2.84c-.15.19-.71.25-.91.11-.19-.12-.27-.64-.18-.9.36-.94,1.01-1.48,2.48-1.26-.55.83-.92,1.49-1.39,2.05Zm1.02,2.26c3.17-1.33,6.42-2.69,9.67-4.04-2.88,2.68-7.08,4.35-9.67,4.04Zm14.52-7.99c-1.83.81-3.68,1.63-5.51,2.45-.59-1.15-.2-1.96,1.24-2.22,1.38-.24,2.8-.33,4.19-.48.03.08.06.16.08.24Zm-3.68-2.83c-6.39-.79-11.88,1.32-17.49,3.57,3.38-5.85,11.5-6.67,17.49-3.57Zm-22.09,5.17c.13-.23.25-.49.38-.72,1.66-3.14,3.28-6.29,4.99-9.4.51-.94,1.14-1.83,1.85-2.63.39-.44,1.07-.63,1.62-.93.07.11.14.22.21.33-3.38,4.2-4.87,9.66-9.05,13.35Zm8.15-15.5c.53-1.62,2.11-3.47,3.28-3.87-.71,2.68-2.01,4.21-3.28,3.87Zm4.07-4.83c-.15-.05-.3-.09-.45-.14-.46,0-.93.03-1.39,0-.28-.02-.77-.08-.8-.21-.06-.28,0-.7.2-.91.46-.51,1.01-.94,1.58-1.44-1.73-1.25-1.22-3.07-1.09-4.74.08-1.01.05-1.87-.37-2.86-1.19-2.73-1.15-5.58-.07-8.41.99,4.62,2.11,9.23,2.9,13.89.26,1.53-.32,3.22-.51,4.84Zm2.08-4.5c-.11-.06-.23-.1-.35-.15.8-1.81,1.61-3.61,2.41-5.42-.02,2.14-.78,3.97-2.07,5.57Zm2.81-11.44c-.21-5.13-1.68-10.33.84-15.28-.14,5.1,1.4,10.31-.84,15.28Zm2.21.48c-.15.16-.36.27-.77.57,1.74-4.75.8-9.37.62-13.95-.08-2.15-.04-4.29.7-6.37.45,4.33,1.82,8.57,1.28,13.02-.03.24.21.52.32.8.07.16.21.35.17.48-.49,1.95-.91,3.92-2.32,5.46Zm5.37-16.57c.65-2.93,1.48-5.74,4.16-7.49-1.73,2.31-2,5.43-4.16,7.49Zm6.66-8.66c-1.47,2.4-1.14,5.77-4.05,7.37,1.48-2.39,1.96-5.31,4.05-7.37Zm.16,7.53c-1.15,1.87-2.69,3.22-5.31,3.57,3.52-3.07,4.95-7.04,6.56-10.91.74-1.76,1.7-3.42,2.76-5.04-1.14,4.21-1.68,8.6-4,12.39Z"/>
    <path d="m131.97,192.16c-1.07-3.68-2.35-7.31-3.55-10.96-.14,0-.29-.03-.43-.05-1.03,3.7-2.16,7.36-3.04,11.09-.64,2.69-.22,5.31,1.64,7.52.23.24.48.5.71.74,2.31-.11,4.53-2.11,4.81-4.57.15-1.24.2-2.6-.14-3.78Zm-4.09-3.11c-.19,2.06-.42,4.13-.59,6.19-.06.7.07,1.42.11,2.28-1.29-.98-1.68-2.28-1.46-3.63.36-2.17.96-4.31,1.46-6.48.16.02.33.03.49.05,0,.52.04,1.06,0,1.58Zm1.78,9.51c-.86-.66-1.24-1.55-1.23-2.56.02-1.11.19-2.23.33-3.33.15-1.18.36-2.35.53-3.57,2.12,3.19,2.29,6.91.36,9.47Z"/>
    <path d="m250.3,169.88c-.48-.19-1.08-.22-1.59-.15-1.97.29-3.84-.05-5.66-.78-1.19-.47-2.39-.88-3.57-1.33-2.93-1.12-5.85-2.34-9.01-2.42-9.79-.24-17.58,3.87-23.93,11.1-.41.47-.46.87-.03,1.3,1.19,1.2,2.26,2.56,3.62,3.54,5.06,3.59,14.11,5.82,22.1-.08,3.26-2.4,6.51-4.82,9.85-7.11,2.69-1.83,5.63-3.06,9.01-2.83.08-.1.17-.22.25-.33-.35-.32-.64-.76-1.05-.91Zm-33.82,12.46c-2.83-.84-5.63-1.31-7.46-3.72.07-.12.15-.24.22-.36.8.51,1.58,1.01,2.51,1.61.06-.03.37-.22.7-.43.22.54.43,1.04.69,1.67.51-.67.9-1.18,1.28-1.68.08.05.18.09.26.15-.07.56-.12,1.12-.19,1.68.11.06.23.11.35.17.27-.38.54-.78.82-1.16.19-.24.37-.48.56-.71.2.25.55.51.55.77,0,.63-.18,1.26-.3,2.02Zm.03-3.83c-.12-.34-.35-.66-.35-.99,0-.99.52-1.38,1.56-1.24-.14.51-.22,1.06-.44,1.53-.14.29-.51.48-.78.71Zm1.97,4.16c-1.21-.65-1.23-1.46,0-2.83.74.82.74,1.1,0,2.83Zm.87-4.82c-.07.23-.36.39-.55.59-.15-.2-.37-.37-.42-.59-.23-1.08.37-1.82,1.31-1.73-.1.58-.17,1.17-.34,1.73Zm1.38,4.9c-.92-.73-.93-1.59,0-2.99,1.04,1.04.18,1.99,0,2.99Zm.09-4c-.95-1.13-.55-2.57.78-3.16.63,1.09.46,1.79-.78,3.16Zm2.49,4.19c-.57.22-.9.06-.97-.54-.06-.37-.04-.76-.06-1.14-.03-.35-.06-.68-.07-1,1.22-.64,1.89-.55,2.27.27.41.87-.16,2.03-1.17,2.41Zm1.13-4.37c-.51.25-1.26.05-1.83.05.16-1.27.29-2.28.41-3.25.62-.1,1.23-.22,1.87-.34.36.75.22,3.21-.45,3.54Zm.62,3.87c.65-1.3.68-3.05,2.74-3.28.78,1.92-.95,4.12-2.74,3.28Zm4.33-.99c-.14-.11-.29-.22-.44-.34.32-.66.5-1.51,1.01-1.96.91-.8,1.97-1.46,3.07-1.99,1.47-.71,3.02-1.25,4.54-1.87.08.14.17.28.25.42-2.81,1.91-5.61,3.82-8.43,5.74Zm.44-3.74c-.99-.73.05-2.4-1.57-2.67.07.97.14,1.9.22,2.89-1.02.19-1.89.36-2.82.52.08-.99.11-1.8.22-2.58.1-.66.31-1.21,1.17-1.33,2.9-.41,5.78-.92,8.67-1.36.74-.11,1.49-.13,2.24-.19.03.12.06.24.08.36-2.76,1.46-5.51,2.91-8.22,4.34Zm-8.24-3.42c-.09-.19-.24-.49-.43-.86-.68.49-1.31.95-1.95,1.41-.07-.09-.12-.18-.19-.27.17-.63.33-1.25.49-1.89-.14-.07-.28-.15-.43-.23-.27.36-.59.71-.8,1.11-.11.22.05.57-.07.79-.16.3-.46.52-.69.78-.19-.3-.54-.6-.54-.89,0-1.01.47-1.72,1.51-2.07,3.25-1.06,6.58-1.77,9.98-1.78,3.95-.02,7.9.25,11.85.39,0,.19.02.37.03.55-6.22.98-12.44,1.97-18.76,2.96Zm-6.73-2.43c1.94-2.16,4.32-3.56,7.06-4.35,5.47-1.58,10.85-.87,16.18.78,1.2.37,2.37.86,3.56,1.29-9.12-.92-18.09-1.1-26.8,2.28Z"/>
    <path d="m278.75,105.19c-1.19-.07-2.37-.16-3.55-.24-3.92-.26-7.85-.81-11.76-.72-4.97.11-8.8,2.59-11.32,6.91-1.01,1.73-1.64,3.6-1.34,5.64.66,4.39,5.98,6.79,9.92,4.43,1.24-.75,2.39-1.74,3.34-2.83,1.97-2.26,3.79-4.68,5.69-7.02,1.67-2.07,3.59-3.76,6.32-4.43,1-.24,1.89-.94,2.84-1.41-.05-.11-.09-.22-.13-.34Zm-18.69,6.3c.7-1.32.45-2.8,1.88-3.49.17,1.4-.51,2.72-1.88,3.49Zm-.98,5.2c.49-1.37.93-2.63,1.37-3.88.11.04.22.07.33.12.57,1.79,0,3.16-1.69,3.76Zm-1.75-3.02c.17-2.5,1.09-3.98,2.79-4.06-1.07,1.38-.52,3.58-2.79,4.06Zm6.87-2.86c-.23,3.29-1,4.58-2.81,4.59.93-1.54-.04-4.07,2.81-4.59Zm-1.69-1.21c.42-1.2.59-2.37,2.29-2.7-.11.67-.09,1.29-.33,1.79-.36.73-1.04,1.03-1.97.92Zm-10.07,4.15c.26-.81.34-1.78.83-2.41.8-1.05,1.78-2.03,2.87-2.78,2.3-1.6,4.88-2.55,7.72-2.71-4.29,1.9-8.59,3.71-11.12,8.03-.1-.04-.21-.08-.31-.12Zm.21,3.45c.29-.79.57-1.58.86-2.37.17.07.35.13.51.21-.25.79-.5,1.58-.75,2.38-.21-.07-.42-.15-.63-.22Zm1.75,2.29c-.76-.96-.58-1.3,1.01-2.06.36.95.27,1.15-1.01,2.06Zm.43-3.96c.25-1.47.35-2.83,1.49-3.88.49,1.99.03,3.28-1.49,3.88Zm3.79-.27c-.12,1.8-.54,2.44-1.76,2.72-.21-1.58.44-2.62,1.76-2.72Zm-1.74,4.77c.83-.63,1.38-1.54,2.61-1.17.22.07.6-.23.85-.44,2.52-2.05,5.02-4.11,7.32-5.98-1.95,3.76-7.35,8.25-10.78,7.59Zm8.27-7.13c-.71-1.95.72-3.57,3.18-3.63-1.1,1.25-2.12,2.42-3.18,3.63Zm.26-4.44c.44-1.74,1.67-2.16,4.6-1.59-1.67.58-3.08,1.07-4.6,1.59Z"/>
    <path d="m276.12,86.83c-2.5-.02-5.02-.1-7.5.21-4.73.6-8.38,4.4-8.99,8.98-.42,3.19,2.44,5.78,5.52,4.91,1.02-.28,2.06-.73,2.9-1.36,1.82-1.36,3.56-2.84,5.24-4.35,3.04-2.72,5.62-5.95,9.31-8.11-2.26-.1-4.37-.27-6.48-.28Zm-15.06,9.19c.29-3.96,5.99-8.54,8.96-7.55-1.53,1.09-3.23,2.14-4.73,3.41-1.49,1.25-2.8,2.72-4.23,4.15Zm5.6,2.69c-1.44.61-2.9.61-4.51-.42,4.54-1.31,7.41-5.27,11.92-6.14-2.12,2.6-4.21,5.22-7.41,6.56Zm-3-2.58c1.44-3.85,8.68-7.88,11.65-6.76-3.8,2.21-7.6,4.41-11.65,6.76Z"/>
    <path d="m187.91,211.56c-1.67-.86-3.27-1.85-4.88-2.83-1.41-.85-2.74-1.88-4.22-2.61-1.91-.95-3.84-.67-5.57.57-.29.2-.55.78-.47,1.08.57,2.1,1.79,3.76,3.99,4.24,1.64.36,3.35.38,5.03.47,2.11.11,4.21.13,6.56.21.2-.27.43-.67-.45-1.12Zm-8.37-.22c-1.68-.81-3.95-.53-5.11-2.95,1.97.96,3.63,1.78,5.29,2.59-.06.11-.12.23-.18.36Zm3.23-.35c-2.32-1.2-4.65-2.4-6.97-3.6.07-.12.13-.25.2-.38,3.04-.22,4.92,1.85,6.95,3.64-.06.11-.12.23-.18.35Z"/>
    <path d="m82.46,167.76c-4.52-2.02-9.24-3.31-14.19-2.34-3.15.63-6.2,1.82-9.25,2.88-2.53.88-5,1.89-7.76,1.41-.41-.07-.89-.03-1.25.13-.43.19-.77.56-1.14.86.07.13.13.26.2.39,4.44-.27,7.94,1.92,11.34,4.34,2.7,1.94,5.32,3.98,8.05,5.89,6.15,4.3,12.63,4.23,19.24,1.24,2.69-1.22,4.88-3.08,6.43-5.6-2.28-3.38-6.93-7.08-11.66-9.21Zm-9.36-1.09c4.29.18,8.21,1.39,11.47,4.31.28.24.61.45.82.82-8.78-3.32-17.74-3.15-26.79-2.11,4.63-2.06,9.42-3.23,14.49-3.02Zm-2.04,14.73c-3.09-1.73-6.02-3.48-8.52-5.85.07-.13.15-.27.22-.4,2.34,1.18,4.73,2.3,7.03,3.57.89.49,1.38,1.4,1.27,2.69Zm-.11-5.32c-.11.51-.15,1.02-.25,1.82-3-1.58-5.78-3.05-8.55-4.51.05-.18.09-.35.15-.52,2.19.38,4.37.79,6.57,1.15,1.29.21,2.59.43,3.89.5,1.17.06,1.53.69,1.6,1.68.06.68.11,1.37.19,2.26-.86-.14-1.7-.27-2.78-.44.06-.92.1-1.84.16-2.86-.71-.22-.86.37-.97.94Zm1.46,3.11c2.01.18,2.07,1.93,2.77,3.31-2.2.37-3.36-1.09-2.77-3.31Zm2.52-4.19c.91.16,1.53.27,2.27.39.11.93.24,1.97.39,3.15-.51.07-1.16.15-2,.26-.22-1.27-.43-2.49-.66-3.81Zm2.99,7.13c-.07.97-.43,1.15-1.26.7-.94-.51-1.33-1.52-.92-2.32.39-.77,1.02-.85,2.19-.29,0,.69.04,1.3,0,1.91Zm1.6.74c-.28-1.09-.95-2.03-.1-3.11.94,1.23.97,2.12.1,3.11Zm-.92-7.24c1.35.58,1.73,2.01.83,3.09-1.21-1.01-1.47-1.99-.83-3.09Zm.51-2.18c-.18.31-.36.61-.51.86-6.29-.99-12.55-1.97-18.81-2.97,0-.1.03-.22.04-.32,6.46-.78,12.9-1.22,19.29.43.94.24,1.84.57,2.77.82.89.24,1.24.92,1.28,1.71.03.37-.31.77-.48,1.15-.26-.33-.56-.62-.77-.97-.1-.18.04-.49-.06-.68-.17-.36-.43-.68-.66-1.02-.15.06-.31.11-.46.18.13.66.26,1.31.39,2-1.06.44-1.2-.92-2.04-1.2Zm1.78,4.44c-.16-.57-.24-1.15-.44-2.11.53.39,1.05.57,1.17.9.18.5.09,1.09.08,1.64,0,.06-.32.18-.36.14-.19-.16-.38-.35-.45-.56Zm.79,4.89c-.12-.99-1.06-1.93,0-2.94,1.29,1.3,1.29,2.16,0,2.94Zm.76-6.36c.07-.11.16-.22.23-.33.37.18.95.27,1.08.57.25.54.24,1.21.35,1.82-.24.06-.49.11-.73.17-.31-.75-.62-1.49-.93-2.24Zm1.28,5.96c-.09-.82-.22-1.53-.22-2.22,0-.2.37-.39.57-.58.16.18.35.35.48.55.26.43.51.88.76,1.32.14-.06.29-.12.43-.18-.07-.53-.13-1.06-.2-1.59.07-.07.14-.15.22-.22.4.48.8.95,1.35,1.6.24-.57.45-1.07.67-1.6.28.17.64.36.74.42.9-.6,1.67-1.11,2.43-1.63.08.13.16.26.24.39-1.81,2.39-4.6,2.84-7.47,3.72Z"/>
    <path d="m48.82,112.68c-2.6-6.18-7.94-8.94-14.86-8.58-4.15.22-8.29.74-12.44,1.12-.06.1-.12.2-.19.3,1.03.52,2,1.25,3.1,1.53,2.23.55,3.89,1.83,5.33,3.49,1.08,1.25,2.06,2.6,3.13,3.86,1.62,1.91,3.22,3.85,4.97,5.63,1.23,1.25,2.8,2.04,4.63,2.11,5.23.2,8.41-4.47,6.33-9.46Zm-1.23,1.38c-2.64-4.47-6.95-6.32-11.46-8.18,4.94-.43,11.59,4.26,11.46,8.18Zm-9.49-5.8c1.07,0,1.41.6,1.8,3.08-1-.52-1.52-1.4-1.8-3.08Zm.66,7.06c-1.67.19-2.06-.43-2.86-4.49,2.97.43,1.95,3,2.86,4.49Zm.94-2.55c.47,1.24.93,2.49,1.44,3.87-1.68-.42-2.32-1.94-1.44-3.87Zm.66-3.1c1.36-.06,2.16,1.15,2.55,3.83-1.38,0-1.76-.57-2.55-3.83Zm-4.7-2.72c1.32.49,1.42.63,1.97,2.57-1.56.21-2.53-.99-1.97-2.57Zm-.85,1.54c-1.59-.56-2.97-1.04-4.59-1.62,2.85-.55,4.12-.14,4.59,1.62Zm.28,4.46c-1.1-1.26-2.13-2.44-3.16-3.62,2.25-.17,3.84,1.58,3.16,3.62Zm8.08,7.14c-3.44.57-8.75-4.05-10.62-7.64,2.32,1.9,4.82,3.97,7.35,5.99.29.22.79.19,1.16.34.76.3,1.5.65,2.24.97-.04.11-.08.22-.12.34Zm.22-2.11c-1.21-.22-1.52-.65-1.87-2.69,1.35.05,2,1.05,1.87,2.69Zm.42-6.38c1.26,1.09,1.29,2.5,1.56,3.88-1.42-.38-1.83-1.41-1.56-3.88Zm2.01,7.86c-1.2-.69-1.35-.98-1.07-1.98,1.59.61,1.86,1.1,1.07,1.98Zm1.41-2.11c-1.13-.43-.65-1.53-.96-2.3.13-.06.26-.11.39-.16.32.77.63,1.53.95,2.3-.12.06-.25.1-.37.16Z"/>
    <path d="m39.25,92.18c-2.39-4.02-6.15-5.42-10.57-5.46-3.62-.03-7.24,0-10.86,0,.02.1.05.21.07.32,1.55,1.31,3.15,2.57,4.65,3.95,2.65,2.41,5.16,5,7.9,7.3,1.36,1.14,3.02,2.05,4.7,2.61,2.66.88,5.16-.98,5.45-3.78.19-1.82-.42-3.42-1.32-4.94Zm-12.48-3.04c4.23.74,7.22,3.32,9.83,6.48-.09.13-.19.25-.28.37-3.78-2.2-7.56-4.4-11.62-6.76.84-.05,1.48-.2,2.07-.09Zm7.36,9.72c-1.51-.71-2.98-1.6-4.27-2.66-1.38-1.13-2.54-2.55-3.79-3.85.05-.1.1-.21.16-.31.68.22,1.42.35,2.03.69,1.6.92,3.13,1.95,4.72,2.9,1.57.95,3.17,1.86,4.82,2.83-1.12.76-2.46.95-3.67.39Zm.67-7.12c-1.46-1.21-3.09-2.21-4.55-3.25.63-.4,1.91-.3,3.54.66,2.59,1.54,4.77,3.46,5.47,6.83-1.62-1.56-2.96-3-4.46-4.25Z"/>
    <path d="m127.16,206.84c-1.23-.95-2.62-1.43-4.21-1.18-2.06.34-3.62,1.62-5.3,2.7-1.77,1.15-3.63,2.14-5.41,3.27-.31.2-.38.74-.6,1.2,1.73-.14,3.02-.3,4.32-.34,1.69-.06,3.4.06,5.09-.03,3.43-.18,5.46-1.63,6.31-4.44.11-.36.04-1-.21-1.18Zm-9.74,4.19c1.56-2.66,5.01-4.44,7.2-3.74-2.53,1.31-4.87,2.53-7.2,3.74Zm3.23.21c-.04-.09-.07-.2-.11-.29,1.67-.81,3.35-1.63,4.98-2.41-.21,1.37-.88,1.74-4.87,2.7Z"/>
  </g>
  <rect class="cls-1" width="300.31" height="300.64"/>
</svg>