<?xml version="1.0" encoding="UTF-8"?>
<svg id="Layer_2" data-name="Layer 2" xmlns="http://www.w3.org/2000/svg" viewBox="0 0 600 600">
  <defs>
    <style>
      .cls-1 {
        fill: none;
      }

      .cls-1, .cls-2 {
        stroke-width: 0px;
      }

      .cls-2 {
        fill: #ea8c55;
      }
    </style>
  </defs>
  <g id="Layer_1-2" data-name="Layer 1">
    <g>
      <rect class="cls-1" width="600" height="600"/>
      <g>
        <path class="cls-2" d="M472.78,324.51h.02c0-40.77.01-81.53-.04-122.29,0-3.3-.08-6.67-.69-9.89-4.74-25.26-25.9-42.96-51.7-43.15-20.13-.15-40.26-.08-60.4-.04-1.7,0-2.32-.35-2.7-2.19-6.64-31.52-35.06-51.2-66.82-46.38-23.52,3.56-42.44,21.55-47.33,45.19-.53,2.55-1.38,3.45-4.1,3.43-19.55-.12-39.11.01-58.66-.07-7.65-.02-15.02,1.29-21.92,4.5-20.03,9.34-30.72,25.27-31.07,47.3-.47,28.32-.12,56.67-.12,85.01,0,54.1-.11,108.2.08,162.3.05,16.79,7.03,30.6,20.41,40.85,9.68,7.41,20.87,10.93,33.04,10.99,25.03.11,50.04.06,75.07.05,54.76-.01,109.53-.01,164.29-.08,7.36,0,14.51-1.43,21.15-4.58,20.25-9.61,31.22-25.69,31.4-48.17.32-40.93.08-81.86.08-122.78ZM256.09,159.92c.78-12.88,4.64-24.72,14.4-33.82,10.08-9.43,22.28-12.78,35.75-10.9,19.81,2.77,34.64,17.51,37.14,39.7,1.25,11.14,1.02,22.48.95,33.71-.05,6.67-5.32,11.21-12.1,11.26-10.69.07-21.38.02-32.07.02s-20.87.01-31.32-.01c-8.27-.01-12.93-4.61-12.97-12.89-.02-9.03-.32-18.08.22-27.08ZM457.82,447.5c0,18.37-14.89,34.91-33.14,36.81-3.04.32-6.1.42-9.17.42-78.29.02-156.59.02-234.88.01-17.79,0-32.7-11.44-37.16-28.62-.77-3.01-1.16-6.2-1.16-9.31-.05-81.29-.05-162.56-.01-243.84,0-22.58,16.22-38.8,38.78-38.84,19.05-.02,38.11,0,57.16,0,.81-.01,1.61,0,2.81,0,0,8.37-.04,16.31,0,24.27.06,13.89,7.71,23.33,21.27,26.17,1.44.3,2.96.32,4.43.33,22.37.01,44.74.07,67.11-.04,13.64-.06,24.52-10.45,25.1-24.03.33-7.78.13-15.57.18-23.35v-3.34h2.56c19.13,0,38.28-.05,57.41.01,22.27.06,38.71,16.55,38.72,38.77.01,81.52.01,163.05,0,244.57Z"/>
        <path class="cls-2" d="M416.27,432.11c-1.22.21-2.47.26-3.71.26-75.04.01-150.07,0-225.1,0-3.04,0-6.06-.15-8.14-2.75-1.95-2.43-2.56-5.22-1.23-8.13,1.37-3.02,3.85-4.36,7.16-4.36,26.58.01,53.17,0,79.75,0h35.28c37.84.01,75.7,0,113.55.01,4.62,0,7.05,1.59,8.26,5.24,1.42,4.3-1.36,8.97-5.82,9.73Z"/>
        <path class="cls-2" d="M421.81,386.75c-1.33,2.95-3.8,4.26-6.9,4.46-1.73.12-3.47.05-5.22.05-36.61.01-73.22,0-109.82,0v.02h-113.81c-4.23,0-6.9-1.7-8.14-5.17-1.09-3.03-.42-6.41,2.34-8.16,1.84-1.17,4.29-1.87,6.46-1.88,43.23-.09,86.47-.05,129.71-.04,32.22,0,64.44-.01,96.65-.04,2.91,0,5.66.44,7.6,2.85,1.89,2.37,2.42,5.05,1.12,7.91Z"/>
        <path class="cls-2" d="M236.28,263.13c-15.89-.04-31.78.01-47.68-.01-6.89,0-11.41,4.77-11.31,11.31.22,14.65.25,29.31-.01,43.95-.12,6.96,4.29,12.29,12.14,12.13,7.69-.16,15.39-.04,23.1-.04v-.05c7.86,0,15.73.12,23.59-.04,7.36-.15,11.39-4.43,11.4-11.79.01-14.73.01-29.47,0-44.2-.01-6.62-4.56-11.24-11.23-11.26ZM232.43,315.11h-40.09v-36.56h40.09v36.56Z"/>
        <path class="cls-2" d="M397.08,253.04c-18.5,18.62-36.99,37.26-55.45,55.9-5.89,5.94-11.73,11.93-17.6,17.89-4.99,5.09-10.09,5.17-15.11.21-7.31-7.23-14.68-14.38-21.8-21.77-1.56-1.61-2.71-4-3.15-6.2-.64-3.32,1.43-6.54,4.41-7.88,3.72-1.68,7.16-.96,10.08,1.74,3.05,2.81,6.03,5.7,8.86,8.7,2.96,3.12,5.71,6.44,8.13,9.2,9.48-9.13,18.11-17.24,26.5-25.59,14.21-14.15,28.25-28.45,42.34-42.7,2.29-2.3,4.79-4.21,8.27-3.63,3.33.56,5.81,2.4,6.81,5.75.96,3.2.08,5.96-2.29,8.36Z"/>
        <path class="cls-2" d="M300.27,130.75c-15.25-.12-27.27,11.62-27.35,26.72-.08,15.55,11.64,27.4,27.14,27.45,15.14.05,27.06-11.82,27.12-27,.06-15.24-11.65-27.05-26.91-27.17ZM300.03,170.56c-7.18.01-13.05-5.79-13.02-12.84.05-7.03,5.98-12.84,13.09-12.83,7.03.01,13.02,6.07,12.9,13.03-.13,6.99-5.89,12.63-12.97,12.64Z"/>
      </g>
    </g>
  </g>
</svg>