<?xml version="1.0" encoding="UTF-8"?>
<svg id="Layer_2" data-name="Layer 2" xmlns="http://www.w3.org/2000/svg" viewBox="0 0 600 600">
  <defs>
    <style>
      .cls-1 {
        fill: none;
      }

      .cls-1, .cls-2 {
        stroke-width: 0px;
      }

      .cls-2 {
        fill: #ea8c55;
      }
    </style>
  </defs>
  <g id="Layer_1-2" data-name="Layer 1">
    <g>
      <rect class="cls-1" width="600" height="600"/>
      <g>
        <path class="cls-2" d="M562.26,418.3c-.06-7.84-5.27-14.33-12.91-16.23-1.2-.29-2.44-.4-3.93-.63v-2.65c0-40.24,0-80.48-.01-120.73,0-7.99-.87-15.85-3.22-23.52-7.86-25.56-15.67-51.14-23.59-76.69-3.41-11.01-10.22-19.37-20.33-24.97-6.75-3.74-14.04-5.19-21.7-5.18-18.27.03-36.55,0-54.82,0h-43.11c-.8,0-1.6-.07-2.56-.11,0-3.46.05-6.66-.01-9.86-.1-5.44-1.21-10.7-3.56-15.58-7.85-16.29-20.88-25.05-38.97-25.1-67.51-.17-135.03-.07-202.55-.05-2.15,0-4.33.14-6.45.46-8.88,1.31-16.64,5.02-23.08,11.28-8.57,8.33-12.89,18.54-12.99,30.5-.04,4.81,0,9.62,0,14.44v2.43h-2.75c-12.62,0-25.25,0-37.87.01-.77,0-1.54-.03-2.3.05-3.63.36-6.71,2.94-7.56,6.28-.89,3.46.39,7.01,3.31,9.04,1.71,1.19,3.64,1.63,5.73,1.62,12.97-.02,25.95-.01,38.92,0,.8,0,1.6.07,2.35.11.42,4.05.25,65.81-.21,67.5-2.17,0-4.39-.06-6.61.03-1.38.05-2.81.13-4.12.53-3.77,1.12-6.21,4.91-5.76,8.68.51,4.28,3.63,7.41,7.81,7.66,2.29.13,4.6.03,6.9.06.67.01,1.34.08,2.02.12v109.95h-2.19c-4.6,0-9.2-.02-13.81,0-1.39.01-2.81.01-4.16.3-8.03,1.71-13.45,8.32-13.52,16.59-.07,8.44-.02,16.88-.01,25.32.01.9.05,1.82.19,2.71,1.34,8.34,8.81,14.33,16.67,14.18,6.49-.13,12.98.03,19.46-.06,1.67-.02,2.86.43,4.03,1.63,6.06,6.17,12.2,12.26,18.33,18.37,2.51,2.51,4.96,5.1,7.6,7.48,4.57,4.12,9.99,6.27,16.16,6.39,3.13.06,6.27.01,9.41.03.61,0,1.22.07,1.78.1,4.48,24.63,24.68,40.4,46.01,42.06,11.25.87,21.74-1.63,31.3-7.71,12.7-8.07,20.09-19.75,23.01-34.35h128.16c4.81,25.6,25.72,40.74,46.6,42.09,11.58.75,22.27-2.02,31.9-8.51,12-8.09,19.02-19.49,21.83-33.69h2.63c21.9,0,43.8-.07,65.7.04,8.74.04,16.86-7.26,16.87-16.7.02-8.58.06-17.16-.01-25.74ZM113.66,409.99h-41.8c-.49-1.63-.53-23.31-.05-25.29h41.85v25.29ZM105.46,367.61v-109.92h2.77c52.03,0,104.07,0,156.11-.02,1.44,0,2.95-.06,4.33-.45,3.75-1.05,6.2-4.78,5.85-8.63-.36-4.04-3.16-7.07-7.1-7.61-1.23-.17-2.49-.24-3.74-.24-51.69-.01-103.38-.01-155.06-.01h-2.85c-.51-1.61-.63-64.95-.14-67.62h2.4c12.9,0,25.81-.01,38.71.01,2.09.01,4.02-.42,5.74-1.6,3-2.07,4.28-5.71,3.3-9.23-.94-3.33-4.04-5.82-7.69-6.13-.76-.06-1.53-.04-2.3-.04h-40.22c-.09-.56-.21-.96-.21-1.35-.01-5.3-.1-10.61.02-15.91.24-10.87,7.14-20.29,17.19-23.65,3.21-1.07,6.52-1.4,9.88-1.4h200.05c5.71,0,11.09,1.18,15.79,4.58,6.82,4.92,10.44,11.62,10.91,20.01.06.9.04,1.81.04,2.72v226.49H105.46ZM198.13,486.13c-19.87-.23-34.18-16.55-33.48-35.13.66-17.75,15.17-32.75,34.21-32.49,19.4.26,33.38,15.97,33.41,33.75-.11,19.03-15.18,34.08-34.14,33.87ZM426.73,486.13c-19.82-.13-33.89-16.29-33.63-34.37.25-17.53,14.36-33.31,33.9-33.25,19.58.05,33.72,15.94,33.72,33.62.11,18.45-14.53,34.12-33.99,34ZM486.07,443.77h-8.95c-4.72-26.17-27.55-42.18-50.11-42.23-22.8-.05-45.74,16.27-50.31,42.29h-128.13c-2.79-14.36-10.05-25.83-22.31-33.93-9.37-6.19-19.73-8.81-30.95-8.22-21.12,1.1-42.49,16.81-47.04,42.1-.49.04-1.02.13-1.56.14-2.79.01-5.58.02-8.36,0-2.62-.03-4.91-.89-6.79-2.77-4.53-4.54-9.07-9.07-13.6-13.61-.2-.19-.35-.42-.65-.79.44-.18.77-.35,1.12-.45,7.46-2.26,12.29-8.71,12.32-16.55.03-7.53.01-15.06.01-22.59v-2.4c.69-.07,1.22-.15,1.76-.18.48-.02.97,0,1.46,0h308.8c.76,0,1.53-.02,2.3.01,2.78.12,5.03,1.3,6.99,3.28,7.27,7.33,14.62,14.57,21.88,21.91,3.29,3.32,6.95,6.01,11.44,7.46.19.06.35.21.68.41v26.12ZM486.45,398.41c-7.45-7.54-14.99-15-22.45-22.53-4.09-4.14-8.89-6.93-14.67-7.82-1.78-.27-3.61-.29-5.42-.29-21.69-.02-43.38,0-65.08,0h-2.57v-202.94c.74-.04,1.47-.13,2.2-.13,6.55-.01,13.11-.01,19.67-.01,26.36,0,52.73.02,79.09-.02,4.48,0,8.74.76,12.69,2.9,6.33,3.42,10.47,8.63,12.58,15.48,2.9,9.46,5.82,18.91,8.73,28.36,4.72,15.31,9.42,30.62,14.15,45.92,2.05,6.64,3.14,13.4,3.09,20.38-.07,12.2-.02,24.41-.02,36.61v2.47c-.88.04-1.62.11-2.36.11-4.4,0-8.79-.02-13.19.02-3.01.02-5.99.33-8.73,1.74-6.14,3.15-9.43,8.27-9.53,15.09-.19,11.37-.19,22.74-.01,34.1.14,8.39,5.64,14.77,13.74,16.42,1.35.28,2.77.29,4.16.3,4.53.04,9.06.02,13.6.02h2.18v16.81c-.5.06-1.02.18-1.55.18-10.95,0-21.9-.01-32.85.02-2.97.01-5.36-1.08-7.45-3.18ZM528.29,333.93v33.71h-16.32c-.48-1.41-.67-29.76-.2-33.71h16.52ZM545.11,443.82h-41.68c-.43-1.6-.55-22.43-.15-25.24h41.75c.48,1.42.59,22.87.08,25.24Z"/>
        <path class="cls-2" d="M333.59,200.29c-.8,3.49-3.1,5.7-6.69,6.37-1.09.2-2.21.3-3.32.3-60.87.02-121.75.02-182.62,0-1.51,0-3.09-.17-4.52-.62-3.83-1.2-6.05-4.91-5.59-8.98.42-3.76,3.79-6.96,7.75-7.31.9-.08,1.81-.06,2.71-.06h91.21c30.47,0,60.95.01,91.42-.02,2.36,0,4.58.33,6.5,1.82,2.8,2.19,3.92,5.11,3.15,8.51Z"/>
        <path class="cls-2" d="M240.55,166.2c-.75,3.84-3.9,6.59-7.9,6.89-.34.02-.69.02-1.04.02-10.81,0-21.61.01-32.42-.01-.89,0-1.81-.11-2.67-.33-4.25-1.12-6.83-4.66-6.46-8.79.39-4.32,3.71-7.56,8.13-7.82,1.81-.11,3.62-.03,5.44-.04h11.71c5.37,0,10.74-.06,16.1.05,1.5.03,3.09.31,4.44.91,3.58,1.58,5.41,5.36,4.67,9.12Z"/>
        <path class="cls-2" d="M510.59,260.07c-5.07-16.07-10.07-32.16-15.1-48.24-2-6.38-3.88-12.79-6.05-19.11-2.36-6.84-8.69-11.15-15.86-11.15h-31.59s-2.3,0-2.3,0c-9.63,0-19.25.01-28.87,0-3.05-.01-5.99.46-8.67,1.95-5.93,3.29-9,8.36-9.03,15.17-.05,9.48-.02,18.96-.02,28.44,0,3.56-.04,7.12.05,10.67.11,4.38,1.81,8.11,4.89,11.21.83.85,1.71,1.65,2.58,2.45,9.37,8.66,18.82,17.23,28.09,26,4.15,3.92,8.86,5.8,14.53,5.71,6.69-.11,13.38-.03,20.08-.03,10.32,0,20.64.08,30.96-.02,6.9-.07,12.21-3.09,15.48-9.26,2.35-4.43,2.32-9.05.83-13.79ZM492.33,266.15c-16.31,0-32.63,0-48.94.01-1.25.01-2.21-.26-3.17-1.16-9.65-8.97-19.35-17.9-29.06-26.81-.82-.76-1.22-1.52-1.22-2.69.04-11.71.02-23.42.03-35.14,0-.54.07-1.09.12-1.77h63.51c7.03,22.33,14.03,44.82,21.12,67.56h-2.39Z"/>
        <path class="cls-2" d="M443.81,452c.1,9.5-7.38,17.13-16.8,17.18-9.32.06-16.98-7.5-17.01-16.78-.03-9.3,7.46-16.99,16.82-16.99,10.1.01,16.91,8.11,16.99,16.59Z"/>
        <path class="cls-2" d="M215.35,452.36c-.12,9.34-7.63,16.86-16.97,16.83-9.31-.04-16.95-7.65-16.86-16.94.09-9.17,7.26-16.87,16.98-16.82,10.51.05,16.95,8.78,16.85,16.93Z"/>
      </g>
    </g>
  </g>
</svg>