
<svg id="Layer_2" data-name="Layer 2" {...props} viewBox="0 0 209.14 202.85">
  <g id="Layer_1-2" data-name="Layer 1">
    <g>
      <path class="cls-1" d="m97.94,178.26c-1.49-.54-3.07-.8-4.62-1.19-8.69-2.17-16.35-6.21-22.57-12.71-2.75-2.87-5.21-6.01-7.89-8.95-1.93-2.13-3.84-4.31-6.59-5.46-1.09-.45-2.11-.58-3.11.2-.95.74-1.28,1.96-.59,3.33.92,1.85,2.03,3.6,3.08,5.37.55.93,1.16,1.82,1.74,2.72-.08.15-.16.31-.24.46-.47-.1-1.03-.07-1.4-.32-.99-.65-1.88-1.44-2.84-2.14-3.67-2.66-6.85-5.77-9.25-9.66-3.23-5.23-4.79-11.06-6.31-16.92-.02-.09.07-.2.19-.52.36.77.68,1.36.92,1.98,1.08,2.76,2.14,5.52,3.2,8.28,1.76,4.57,3.97,8.88,7.41,12.46.34.36.75.64,1.12.96.09-.07.17-.14.25-.21-2.65-4.51-3.28-9.65-4.66-14.56-1.22-4.35-2.91-8.49-5.4-12.26-.9-1.36-1.99-2.64-3.19-3.74-1.57-1.44-3.01-1.06-3.98.82-.17.33-.35.64-.59,1.07-1.07-.88-1.99-1.78-3.05-2.45-1.41-.9-2.87-1.77-4.42-2.38-1.17-.46-2.87.37-3.45,1.36-.69,1.19.04,2.05.66,2.99,2.41,3.68,4.78,7.38,7.12,11.1.39.63.64,1.39.81,2.11.18.79-.26,1.31-1.06,1.04-1.03-.35-2.08-.75-2.96-1.36-1.93-1.33-3.33-3.19-4.19-5.33-1.63-4.03-3.05-8.15-4.57-12.22-2.6-7.03-3.07-14.26-2.01-21.63.02-.15.15-.28.4-.71,0,3.34-.04,6.34,0,9.33.04,3.04.59,6,1.6,8.9.17-1.25.04-2.52.19-3.76.53-4.54,1.17-9.06,1.71-13.59.35-2.94.62-5.91-.12-8.83-.72-2.83-2.71-4.03-5.55-3.36-2.98.69-4.48,2.83-5.37,5.56-.19.58-.35,1.16-.53,1.74-.42-1.54-.74-3.05-.68-4.54.14-2.91.66-5.8.71-8.71.03-1.73-.29-3.54-.87-5.17-.66-1.85-2.87-2.64-4.65-.93-1.23,1.17-1.71,2.56-1.87,4.16-.17,1.71-.34,3.42-.51,5.13v4.57c.07.28.18.55.2.83.45,5.14.69,10.31,1.39,15.41.62,4.56,1.28,9.2,2.76,13.51,2.44,7.04,6.21,13.53,10.46,19.65,4.22,6.07,8.57,12.1,14.51,16.71.44.34.67.92,1.01,1.39-.1.08-.2.15-.29.23-.47-.27-.95-.54-1.41-.82-2.36-1.41-4.67-2.91-7.1-4.19-1.08-.57-2.38-.88-3.62-.98-1.66-.14-2.78,1.04-2.58,2.7.13,1.09.53,2.24,1.1,3.18,1.62,2.61,3.98,4.42,6.93,5.26,4.79,1.38,9.63,2.59,14.45,3.86,3.73.98,7.41,2.08,10.74,4.09.36.21.69.49,1.02.73-.47.26-.79.23-1.12.26-1.3.16-2.63.19-3.85.58-.62.2-1.35,1.07-1.41,1.69-.07.62.53,1.46,1.07,1.93.53.47,1.34.79,2.06.86,2.86.31,5.72.58,8.59.71,7.46.34,14.89.94,21.95,3.57,4.83,1.8,9.74,2.55,14.83,1.79,2.06-.31,4.12-.87,6.1-1.55.65-.23,1.33-1.15,1.44-1.85.07-.47-.72-1.37-1.31-1.59ZM14.05,94.8c-1.65,9.56-.04,18.89,2.19,28.17-2.89-9.23-4.5-18.55-2.19-28.17Zm-4.09,6.49c1.34,6.73,2.6,13.48,4.04,20.19,1.47,6.83,5.88,12.24,9.28,18.42-10.23-11.1-12.97-24.47-13.32-38.61Zm25.92,47.36c3.49,4.91,6.99,9.84,10.37,14.61-3.14-1.45-9.55-10.36-10.37-14.61Zm37.83,25.2c-9.43-3.08-18.28-7.28-26.03-13.58-3.97-3.24-7.06-7.13-8.79-12.02-.82-2.29-1.72-4.56-2.58-6.83.11-.05.22-.09.33-.15.62,1.26,1.28,2.51,1.86,3.79,1.76,3.94,3.51,7.88,6.48,11.11,4.5,4.89,9.85,8.66,15.77,11.55,4.46,2.18,9.14,3.95,13.72,5.91.38.17.76.34,1.06.73-.61-.18-1.22-.33-1.82-.52Z"/>
      <path class="cls-1" d="m208.93,89.06c-.54-5.64-1.03-11.27-1.61-16.91-.18-1.71-1.02-3.12-2.48-4.11-1.52-1.03-3.1-.82-3.86.81-.61,1.29-1.12,2.84-.98,4.21.34,3.31,1.15,6.57,1.61,9.87.21,1.57.04,3.19.04,5.03-.99-1.69-1.7-3.19-2.68-4.49-1.44-1.91-4.5-2.77-6.52-2.06-1.88.67-2.97,2.46-2.84,5.31.11,2.52.38,5.07.85,7.55,1.02,5.4,2.21,10.76,3.33,16.13.03.12.13.23.25.42,1.47-6.07.28-12.01,0-17.98.69,3.27,1.29,6.53,1.6,9.83.49,5.05-.64,9.95-1.87,14.79-1.01,3.97-2.2,7.89-3.52,11.76-.88,2.55-2.66,4.51-5.16,5.67-.44.2-1.2.29-1.5.05-.28-.22-.27-.98-.18-1.47.13-.7.39-1.39.71-2.03,1.99-3.87,3.98-7.74,6.05-11.57,1-1.86.38-3.34-1.72-3.73-1.62-.3-3.03.23-4.22,1.28-1.12.97-2.13,2.06-3.2,3.08-.41.39-.87.73-1.34,1.12-.2-.32-.32-.49-.43-.67-1.32-2.14-2.71-2.31-4.47-.55-.33.33-.62.7-.88,1.08-2.17,3.13-3.73,6.57-4.61,10.24-.96,3.94-1.48,7.97-2.3,11.94-.59,2.87-1.36,5.71-2.04,8.58.28-.31.61-.65.92-1.02,2.14-2.61,3.81-5.51,4.84-8.71,1.46-4.54,2.74-9.14,4.12-13.72.12-.42.35-.81.53-1.21.18.06.35.12.53.18-1.06,4.43-1.9,8.92-3.22,13.26-2.21,7.23-7.07,12.62-12.86,17.23-.31.26-.91.16-1.67.27,1.35-2.55,2.59-4.72,3.64-6.97.47-1,.75-2.17.75-3.27,0-1.6-1.17-2.5-2.74-2.15-.96.21-1.92.68-2.71,1.25-2.73,1.98-4.39,4.89-6.39,7.5-2.95,3.87-5.86,7.77-9.07,11.41-3.33,3.76-7.8,6.07-12.14,8.44-1.72.93-3.64,1.53-5.49,2.22-1.64.61-3.49.63-4.86,1.98-1.06,1.04-1.04,2.14.29,2.82.85.44,1.79.85,2.73.96,5.89.72,11.73.5,17.14-2.14,7.45-3.63,15.39-5.27,23.5-6.47,2.92-.44,5.83-.96,8.7-1.67,1.7-.42,2.55-1.78,2.32-2.91-.21-1.05-1.3-1.69-3.06-1.76-.76-.04-1.52.01-2.28,0-.39,0-.78-.03-1.17-.05-.04-.11-.07-.22-.12-.33,1.46-.91,2.83-2.01,4.39-2.69,3.92-1.7,7.9-3.23,11.87-4.78,3.22-1.26,6.58-2.24,9.69-3.73,3.26-1.56,5.72-4.09,6.46-7.84.47-2.39-1.14-3.97-3.48-3.34-1.2.32-2.39.88-3.42,1.58-2.17,1.48-4.22,3.12-6.32,4.69-.38.28-.78.54-1.17.81-.09-.09-.18-.18-.27-.28.47-.66.91-1.35,1.42-1.98,2.11-2.6,4.35-5.08,6.32-7.77,6.03-8.22,10.03-17.5,13.67-26.95.84-2.18,1.31-4.57,1.52-6.9.5-5.48.73-10.98,1.08-16.47.01-.23.14-.47.2-.7v-1.01c-.07-.31-.18-.63-.2-.96Zm-48.79,73.48c-5.52,3.71-11.21,7.11-17.39,9.63-.35.14-.71.27-1.06.39-.07.02-.15-.04-.4-.09.66-.34,1.2-.62,1.75-.88,7.95-3.77,15.5-8.15,21.98-14.19,4.41-4.11,7.88-8.79,9.63-14.67.68-2.29,1.62-4.5,2.73-6.67-.04.34-.08.69-.14,1.03-1.84,11.08-7.92,19.28-17.1,25.45Zm9.31-3.36c3.16-5.53,6.15-10.75,9.32-16.29-1.49,6.5-4.81,11.52-9.32,16.29Zm27.22-52.8c.17-3.16.22-6.34-.04-9.49-.26-3.18-.96-6.32-1.46-9.47,3.32,9.36,2.46,18.85.5,28.36.34-3.14.83-6.26,1-9.41Zm2.49,6.74c-.95,7.55-4.92,13.75-8.8,20,1-2.09,1.88-4.24,3-6.27,3.33-6.01,4.77-12.53,5.35-19.28.36-4.3.53-8.61.79-12.92.02-.35.1-.7.15-1.05,1.07,6.56.33,13.02-.49,19.51Z"/>
      <path class="cls-1" d="m117.04,189.4c-1.01-2.33-2.2-4.58-3.4-6.8-.39-.71-1.01-1.36-1.67-1.86-1.06-.8-1.98-.55-2.65.59-.21.36-.37.76-.51,1.15-1.27,3.68-2.65,7.32-3.74,11.06-.43,1.49-.5,3.2-.26,4.74.44,2.68,2.41,4.02,4.96,4.58h1.02c1.87-.55,3.68-1.21,5-2.76,2.81-3.28,2.87-6.93,1.25-10.69Zm-6.34,8.8c2.26-1.72,1.36-4.38,2.03-6.56,1.19,2.3.04,6.04-2.03,6.56Z"/>
      <path class="cls-1" d="m173.73,83.68c1.95-7.38,1.03-14.42-2.22-21.23-2.34-4.89-5.07-9.51-10-12.31-.18-.11-.39-.19-.83-.4.51-.36.82-.47.9-.66.28-.66.82-1.49.63-1.99-.23-.58-1.1-1.01-1.78-1.3-.56-.23-1.25-.21-1.88-.19-4.31.15-8.04-1.38-11.38-3.96-2.99-2.3-5.92-4.66-8.93-6.93-7.95-5.97-16.79-7.88-26.49-5.66-1.93.44-1.92.52-2.38-1.41-.05-.21-.09-.42-.12-.63-.73-4.39-2.23-8.5-4.54-12.3-2.99-4.94-6.13-9.75-10.6-13.53-.95-.81-2-1.42-3.23-1.1-3.83,1-7.2,3.3-7.89,7.34-.2,1.17-.15,2.64.39,3.65,1.23,2.29,3.08,4.14,5.38,5.43,3.06,1.71,5.67,3.97,8.12,6.45.29.3.5.68.9,1.24-4.54-.23-8.5.85-12.11,2.91-4.92,2.81-9.64,5.94-14.5,8.86-4.05,2.44-8.08,4.96-12.31,7.05-2.49,1.24-5.37,1.74-8.08,2.53-1.71.5-2.06,1.1-1.85,2.84.07.55-.14,1.28-.49,1.7-3.33,4.07-5.93,8.57-7.69,13.51-3.25,9.15-3.95,18.43-.55,27.7,1.06,2.88,1.65,5.74,1.49,8.79-.03.49.39,1,.61,1.49.45-.24,1.01-.38,1.33-.74.79-.84,1.47-1.77,2.23-2.72,0,1.79-.01,3.43,0,5.05.08,14.99,5.3,27.82,16.06,38.35.97.96,1.63,2.23,2.51,3.29.39.46.98.74,1.49,1.1.3-.5.73-.96.88-1.5.26-.93.35-1.91.53-2.96.31.18.42.2.44.26.15.35.25.72.42,1.06,1.35,2.72,2.52,5.56,4.14,8.1,1.58,2.48,3.65,4.66,5.51,6.96.53.66,1.01,1.4,1.66,1.91.42.34,1.2.54,1.68.39.41-.12.68-.82.93-1.31.15-.29.16-.66.23-.99,1.79,1.68,3.37,3.41,5.19,4.84,4.68,3.68,9.84,6.77,14.02,11.08.27.28.91.51,1.2.37.32-.15.59-.74.61-1.14.03-.89.18-1.65,1.01-2.11,2.3,2.02,3.7,4.9,6.34,6.46,1.2-3.22,3.54-5.34,5.37-8.09.61,1.09.98,2.01,1.57,2.75.37.47,1.06.94,1.59.93.47,0,1.02-.61,1.39-1.07.6-.75.96-1.71,1.62-2.37,3.56-3.56,7.1-7.15,10.81-10.53,2.43-2.21,4.15-4.75,5.19-7.82.22-.63.49-1.23.85-2.15.71,1.46,1.25,2.63,1.87,3.77.18.33.56.54.86.8.27-.34.58-.64.82-1.01.33-.52.52-1.14.9-1.6,1.66-1.97,3.44-3.84,5.05-5.85,2.87-3.57,3.9-7.72,3.47-12.25-.03-.38,0-.77,0-1.36,1.6,1.31,2.34,2.85,2.95,4.48.32.87.63,1.75,1.04,2.58.33.68.96.8,1.42.2.91-1.2,1.94-2.39,2.52-3.76,1.91-4.51,3.6-9.12,5.45-13.65,2.55-6.24,3.57-12.67,2.61-19.38-.05-.34.07-.7.12-1.14.36.14.57.18.74.29,1.06.7,2.14.82,3.17,0,1.1-.86.77-1.93.36-3-.7-1.91-.88-3.88-.5-5.88.55-2.86,1.04-5.75,1.78-8.56Zm-51.77-51.78c.52.12,1.04.24,1.57.37.53.14,1.06.28,1.58.44,4.81,1.44,8.76,4.32,12.49,7.56,3.42,2.96,6.85,5.94,11.03,7.85.2.09.35.3.67.59-2.32.44-4.44.18-6.4-.5-3.38-1.17-6.69-2.57-9.97-4.03-.84-.36-1.41-1.31-2.19-1.88-3.22-2.41-6.45-4.77-9.68-7.14-.43-.31-.91-.55-1.36-.83,7.66.96,13.4,5.99,19.84,9.5.12-.2.23-.42.34-.62-5.53-4.41-11.22-8.58-17.92-11.31Zm-22.25,85.78c-2.38-4.09-4.83-8.15-7.12-12.29-1.2-2.18-2.09-4.52-3.16-6.78-.72-1.54.63-2.06,1.41-3.03,1.31,2.65,2.58,5.21,3.85,7.77.18-.06.35-.12.53-.18-.07-.44-.07-.9-.23-1.3-.73-1.85-1.5-3.68-2.27-5.51-.93-2.22-.41-3.48,2.16-4.66.37,1.74.73,3.42,1.09,5.11.12,0,.26,0,.39-.01.04-.36.16-.72.12-1.07-.17-1.34-.36-2.68-.61-4.01-.13-.77-.04-1.39.61-1.93.89-.75,1.72-1.58,2.71-2.51.76,2.83.36,5.7,1.53,8.22.12,0,.25,0,.36-.01.06-.59.19-1.18.17-1.76-.08-2.2-.17-4.4-.34-6.59-.07-.91.09-1.63.77-2.28.85-.8,1.64-1.67,2.72-2.79.83,6.44.85,12.6,2.08,18.6.18.01.36.02.53.04.07-.5.21-1.01.18-1.51-.37-5.49-.77-10.98-1.14-16.46-.06-.82,0-1.65,0-2.47.12-.02.26-.04.38-.07.23.3.44.6.67.89,1.56,2,3.04,4.06,4.71,5.97,1.05,1.2,1.69,2.5,2,4.02,1.27,6.24,1.1,12.45-.3,18.64-.3,1.32-.61,2.64-.82,3.97-.12.74-.02,1.5-.02,2.27,1.07-.42,3.33-7.8,3.77-11.88.46-4.29-.04-8.51-.77-12.77,1.9.47,2.9,1.79,3.02,3.57.32,4.58-.93,8.98-1.41,13.48-.04.47-.1.93-.13,1.39,0,.11.08.22.29.74,1.37-2.68,1.68-5.33,2.13-7.88.47-2.63.54-5.33.79-8.15,1.12.64,2.38,1.36,3.63,2.08,2.9,1.68,2.92,1.68,1.85,4.87-1.52,4.51-4.11,8.44-6.89,12.22-2.49,3.37-5.19,6.59-7.81,9.85-.44.56-1,1.04-1.54,1.51-1.95,1.71-2.2,1.68-4.4.28-6.16-3.95-10.73-9.39-14.56-15.51-1.35-2.14-2.53-4.4-3.72-6.64-.91-1.71-.69-2.47,1.06-3.9,1.97,7.69,6.88,13.62,11.46,19.73.08.11.38.06.82.11-.22-.56-.34-.98-.55-1.36Zm18.51-30.98c-2.46-2.67-5.12-5.17-7.52-7.89-1.93-2.2-1.79-2.65.3-4.75,3.67,4.31,7.35,8.63,11.03,12.95.18-.1.35-.2.53-.31-.21-.49-.34-1.04-.65-1.46-2.97-3.91-5.95-7.8-8.98-11.67-.73-.93-.85-1.76-.22-2.77.53-.86.96-1.78,1.55-2.88,1.49,3,2.91,5.81,4.32,8.63.13-.04.26-.08.39-.12-.05-.45-.02-.93-.18-1.35-.82-2.25-1.53-4.58-2.6-6.73-1.14-2.31-1.04-4.45.17-6.86,2.47,5.15,4.93,10.19,8.38,14.61.18-.07.34-.15.51-.22-.14-.47-.22-.98-.43-1.41-1.93-4.04-3.92-8.06-5.79-12.12-.74-1.59-1.23-3.28-1.9-5.1,2.38,1.14,4.43,2.21,6.54,3.13,1.2.52,2.49.79,3.76,1.14,2.23.61,4.08-.04,5.56-1.79.14-.17.23-.37.44-.75,3.03,3.87,5.93,7.52,7.34,11.92,1.38,4.32,2.1,8.85,3.43,13.33.12-.3.35-.61.34-.9-.28-4.3-.23-8.63-1.76-12.76-1.61-4.34-4.28-8.04-7.16-11.6-1.22-1.5-1.23-1.85.04-3.68,1.25,1.68,2.44,3.27,3.62,4.86,2.75,3.76,5.48,7.52,6.86,12.07,2.11,7.02,1.54,13.88-1.15,20.61-.56,1.4-1.26,2.76-2.06,4.04-.68,1.1-1.84,1.58-3.1,1.21-2.95-.87-6.09-1.45-8.77-2.87-4.52-2.41-9.24-4.63-12.82-8.53Zm-4.67-47.69c4.67,2.38,9.35,4.74,13.99,7.17,3.81,1.98,4.87,6.48,2.3,9.75-.34.43-1.2.84-1.67.7-4.66-1.34-8.92-3.43-12.05-7.31-.53-.66-.85-1.51-1.26-2.28.12-.1.26-.21.38-.31,3.13,3.96,7,6.49,12.08,6.73.09-.12.18-.23.27-.34-.31-.34-.56-.76-.93-1.01-1.04-.72-2.09-1.45-3.22-2.03-4.8-2.49-7.81-6.76-11-10.87-.09-.12-.12-.3-.28-.74.61.23,1.03.35,1.4.54Zm-6.68,6.69c.13,1.35.3,2.53.36,3.73.45,8.6-2.3,16.02-8.08,22.4-2.15,2.38-4.06,4.99-6.05,7.51-.23.28-.26.71-.38,1.07.35-.12.8-.14,1.04-.37,3.48-3.51,7.19-6.83,10.32-10.64,4.18-5.08,5.57-11.19,5.08-17.74-.12-1.52-.14-3.03-.22-4.74,3.19,3.33,3.42,7.17,3.03,11.19-.58,6.04-3.4,11.09-6.96,15.81-3.46,4.59-7.62,8.51-12.16,12-5.02,3.86-8.68,8.74-11.3,14.45-.25.53-.54,1.04-.93,1.76-.58-.56-1.1-.97-1.5-1.48-4.13-5.18-6.64-11.16-8.55-17.43-1.93-6.34-3.38-12.75-3.17-19.44.11-3.82.61-7.58,1.94-11.19.31-.85.69-1.45,1.92-1.1-3.06,14.13-2.06,27.68,6.11,40.04.16-.03.31-.05.47-.08-.17-.69-.28-1.4-.51-2.07-1.47-4.5-3.19-8.93-4.38-13.49-1.54-5.91-1.55-11.97-.9-18.03.19-1.81.35-3.62.57-5.43.22-1.77.92-2.3,2.92-2.21-.13.53-.27,1.04-.39,1.56-.62,2.68-1.28,5.34-1.84,8.03-.31,1.49.09,1.85,1.51,1.49,7.72-1.95,15.31-4.25,22.44-7.88,3.54-1.81,6.83-3.91,9.08-7.32.06-.09.2-.15.55-.39Zm-2.01-10.3c-.3.73-.44,1.2-.67,1.63-1.52,2.81-3.67,5.07-6.42,6.69-4.14,2.45-8.34,4.83-12.49,7.26-.46.27-.84.67-1.26,1.01.1.17.2.34.3.52,4.4-.93,8.34-3.06,12.22-5.27,4-2.29,7.37-5.23,9.37-9.76.67,1.33.26,2.28-.26,3.18-2.18,3.81-5.24,6.8-9.14,8.74-4.72,2.35-9.58,4.42-14.4,6.56-1.73.77-3.52,1.41-5.41,2.17,0-.36-.06-.58.01-.73,1.73-3.66,3.08-7.52,5.68-10.71.39-.49.82-1,1.35-1.33,6.12-3.95,12.35-7.67,19.44-9.66.45-.12.93-.16,1.68-.29Zm-13.98-30.87c-.55,1.49-1.56,2.43-3.01,2.99-.44-1.98.91-3.32,3.01-2.99Zm.79,9.12c-1.04-.59-2.08-1.17-3.11-1.76.11-.18.21-.36.32-.55,1.52-.14,2.02,1.27,3.02,1.93-.07.12-.15.25-.23.38Zm3.35.69c-1.52-1.28-3.04-2.57-4.65-3.94.49-.42.83-.7,1.34-1.12,1.23,1.65,2.41,3.22,3.57,4.78-.09.09-.18.19-.27.28Zm1.93-.42c-1.25-1.71-2.52-3.38-3.73-5.12-.18-.25-.04-.71-.05-1.07.33.08.82.06.96.26,1.87,3.05,3.68,6.12,5.51,9.19.03.05-.04.15-.1.38-.9-1.26-1.72-2.46-2.57-3.64Zm-35.16,32.36c5.98-2.87,11.3-6.8,16.75-10.49,3.96-2.68,8.01-5.2,12.55-6.83,4.12-1.5,8.12-1.33,11.98.85.38.22.71.52,1.38,1.01-8.52-2.48-15.67.09-22.49,4.32-4.1,2.54-8.2,5.08-12.29,7.62-.4.25-.74.58-1.12.88.08.15.17.31.25.46.52-.21,1.06-.36,1.55-.63,4.75-2.66,9.53-5.29,14.24-8.04,3.92-2.28,8.17-3.41,12.64-3.81.77-.07,1.58.11,2.36.17,0,.11.02.23.04.34-.33.07-.64.16-.97.19-6.57.59-12.16,3.32-16.5,8.23-3.03,3.42-6.85,5.29-11.01,6.69-.5.16-1.09.07-1.63.08-.5.01-1.05-.12-1.49.04-2.23.85-4.43.15-6.63-.07-.15-.01-.29-.16-.55-.31.36-.27.63-.53.96-.69Zm-16.97,46.26c-.22.3-.49.56-.88,1-.28-.64-.57-1.14-.74-1.67-3.43-10.41-2.72-20.63,1.79-30.52,1.68-3.66,4-7.04,6.02-10.55.45-.78,1.12-1.06,2.03-.93,3.6.53,7.2,1.01,10.8,1.52.15.02.27.12.55.25-7.77,5.72-8.97,14.31-10.6,22.71.15.09.3.19.45.28.28-.4.66-.77.82-1.22.98-2.92,1.95-5.86,2.87-8.79,1.21-3.87,3.37-7.18,6.02-10.2.12-.15.31-.22.65-.44-.29,1.72-.59,3.25-.81,4.78-.88,6.29-.23,12.49,1.13,18.64.31,1.43.01,2.28-1.32,2.96-3.65,1.87-7.21,3.89-10.85,5.78-3.09,1.6-5.86,3.55-7.94,6.38Zm19.7,43.81c-.92,1.94-1.01,1.93-2.48.28-5.37-6.02-8.92-13-11.17-20.7-1.54-5.24-2.11-10.6-1.86-16.05.01-.29,0-.59,0-.89,0-4.75,1-6.22,5.62-8.15v10.11c.13.03.26.06.38.09.13-.25.34-.48.37-.74.13-1.21.23-2.43.31-3.65.12-1.98.12-3.97.36-5.94.08-.63.7-1.26,1.23-1.73.58-.52,1.32-.85,1.87-1.19.32,5.21.63,10.34.95,15.48.23.01.44.04.67.06.16-.77.45-1.53.46-2.3.05-3.04.02-6.09.01-9.14,0-.59.04-1.2-.04-1.78-.48-3.61,1.91-5.42,4.43-7.15.09-.06.23-.07.35-.06.07,0,.14.09.19.12-.23.49-.46.98-.69,1.48.14.08.28.16.43.24.2-.28.4-.58.63-.9.42,1.09.9,2.13,1.24,3.22,1.98,6.12,5.48,11.41,9.08,16.63,1.09,1.59,2.44,3.05,2.8,5.07.05.32.63.79.93.77.41-.03.97-.38,1.14-.75.46-.94.69-2,1.12-2.96.31-.71.8-1.33,1.4-2.3.3.78.47,1.19.61,1.6.44,1.28.72,2.63,1.33,3.83.63,1.24.53,2.27-.07,3.46-1.56,3.11-3.62,5.78-6.34,7.97-3.17,2.54-6.32,5.12-9.36,7.81-2.56,2.27-4.46,5.07-5.92,8.17Zm23.57,22.66c-1.36-1.06-2.68-2.17-4.05-3.22-.68-.52-.85-.96-.14-1.6,1.2-1.09,2.36-2.24,3.61-3.43.8,3.25,1.55,6.29,2.36,9.51-.66-.46-1.23-.83-1.77-1.25Zm-8.26-5.69c-.57.5-.96.58-1.45-.03-3.43-4.22-6.4-8.71-8.49-13.76-.9-2.17-.69-4.1.93-5.85.85-.92,1.63-1.88,2.65-3.06,1.64,6.41,4.22,11.9,9.17,15.96.15-.06.31-.12.45-.18-.18-.51-.26-1.09-.55-1.51-2.77-4.01-5.3-8.15-7.12-12.69-1.02-2.55-1.02-2.52,1.06-4.27,3.54-2.96,7.06-5.93,10.52-8.97,1.01-.88,1.8-1.99,2.79-3.11.91,1.27,1.74,2.42,2.57,3.57,2.6,3.59,6.07,6.22,9.63,8.74,1.58,1.12,1.45,1.08.55,2.8-2.85,5.43-7.29,9.33-12,13.06-3.71,2.92-7.18,6.16-10.72,9.29Zm21.32,14.26c-.18.17-.85-.06-1.21-.26-3.03-1.64-4.54-4.57-6.17-7.38-.44-.75-.74-1.58-.96-2.51,2.96,3.27,6.59,5.52,10.73,7.58-.87.96-1.57,1.82-2.39,2.56Zm8.83,2.91c-1.22,1.04-2.32-.76-3.48-1.28-.65-.29-.95-.74-.69-1.52.32-.99.66-1.58,1.96-1.54,1.77.04,3.56-.34,5.69-.58-1.21,1.78-2.05,3.69-3.48,4.92Zm1.77-8.11c-1.55,1.22-3.19,1.23-4.99.37-5.13-2.44-9.6-5.69-12.99-10.3-.5-.68-.96-1.41-1.29-2.17-.98-2.23-.66-3.08,1.68-4.4,2.03,6.5,6.63,10.57,12.46,13.41l.44-.39c-.42-.46-.8-.96-1.26-1.37-1.74-1.55-3.66-2.92-5.2-4.65-1.68-1.87-3.14-3.98-4.46-6.13-1.2-1.95-.92-2.43,1.47-3.52.82,3.78,2.96,6.64,5.43,9.28.16-.06.31-.12.47-.18-.14-.5-.19-1.04-.42-1.49-1.25-2.4-2.53-4.78-3.83-7.15-.61-1.11-.39-1.95.6-2.74.91-.73,1.72-1.58,2.68-2.47.44,1.09.81,1.99,1.18,2.9.17-.04.34-.07.51-.1-.08-.78-.02-1.6-.26-2.32-.58-1.76-.12-3.22,1.12-4.69.85,3.03,1.67,5.92,2.49,8.82.19-.04.39-.09.58-.14.47-4.18-1.23-8.07-2.06-12.33,1.69,1.12,2.25,2.51,2.46,4.18.18,1.38.55,2.73.84,4.09.23-.03.45-.06.67-.09-.11-1.65-.22-3.3-.36-5.29,1.82,1.02,3.41,1.86,4.93,2.81.26.16.31.82.28,1.24-.34,3.75-1.62,7.24-2.94,10.72-.24.65-.36,1.34-.29,2.09,3.25-3.7,4.29-8.29,5.01-13,.16,0,.32,0,.48.01.04.44.15.9.12,1.34-.38,4.92-2.36,9.31-4.58,13.6-.41.79-.74,1.63-.91,2.56,1.83-1.14,2.59-3.06,3.52-4.81.96-1.78,1.78-3.65,2.41-5.57.64-1.95.97-4,1.46-6.09.24.04.44.07.63.12,1.98.58,1.97.65,1.07,2.45-.98,1.96-1.87,3.97-2.73,5.99-.25.56-.3,1.21-.44,1.82.13.05.27.11.4.17.28-.36.63-.7.85-1.11,1.23-2.31,2.47-4.62,3.62-6.97.44-.9.92-1.04,1.78-.65,1.15.52,2.35.96,3.54,1.4.93.35,1.19.82.76,1.83-1.88,4.41-4.36,8.44-7.95,11.65-2.87,2.56-5.95,4.88-8.97,7.26Zm16.8-8.36c-1.74,4.71-4.25,8.88-8.28,12.01-.87.67-1.67.47-2.4-.18-.74-.66-.89-2.44-.31-3.16.16-.19.37-.34.56-.51,3.35-3.13,6.72-6.26,10.08-9.39.15-.15.3-.28.77-.71-.19.89-.23,1.44-.42,1.95Zm7.32-7.34c-1.39,2.84-2.85,5.64-4.3,8.45-.09.19-.16.4-.24.6-.04-.07-.08-.15-.12-.22.58-3.76,1.15-7.5,1.75-11.41.82.47,1.75.94,2.59,1.54.24.17.44.79.31,1.04Zm7.07-4.21c-.77,2.35-1.77,2.63-3.89,1.43-2.93-1.67-5.94-3.22-8.93-4.79-2.92-1.53-5.82-3.11-8.8-4.49-3.33-1.54-6.76-2.88-10.14-4.31-.42-.18-.84-.36-1.57-.67,4.03-2.4,6.69-5.75,9.4-9.06.47-.58.94-.71,1.49-.22,4.55,4.07,10.25,4.46,15.91,5,1.93.18,3.87.44,5.8.61.96.09,1.42.53,1.6,1.47.98,5.08.73,10.1-.88,15.03Zm4.97-2.76c-.07.35-.35.65-.72.92.17-2.05.47-4.1.47-6.15.01-2.1-.25-4.2-.42-6.58.81.5,1.52.88,2.14,1.36.26.2.54.66.48.94-.61,3.17-1.28,6.34-1.95,9.5Zm14.03-19.35c-.96,2.38-1.73,4.85-2.59,7.28-.19.54-.41,1.08-.67,1.78-.45-.37-.8-.6-1.08-.89-3.42-3.6-7.72-5.29-12.56-6-5.02-.72-10.06-1.43-14.99-2.58-2.31-.54-4.39-2.09-6.54-3.23-1.02-.55-.61-1.25-.14-2.01,1.79-2.87,3.65-5.7,5.25-8.67.98-1.79,1.54-3.82,2.33-5.86.23.05.56.09.86.21,2.12.83,4.24,1.68,6.36,2.52,1.45.58,2.65,1.44,3.56,2.75.28.42.9.62,1.38.92.28-.53.79-1.04.82-1.58.23-2.99,1.89-5.26,3.8-7.54.03.55.15,1.12.07,1.65-.58,3.93-1.2,7.85-1.79,11.78-.11.76-.15,1.52-.22,2.29.14.04.28.08.42.12.23-.35.52-.67.66-1.05,2.26-5.77,3.42-11.67,2.36-17.88-.2-1.2.01-2.33.9-3.39.42.26.8.53,1.2.73,2.92,1.5,5.78,3.18,8.81,4.44,2.76,1.15,4.48,2.33,4.51,5.9.05,6.3-.35,12.4-2.71,18.3Zm4.09-28.27c-.86,1.47-1.95,1.82-3.59,1.27-2.12-.71-4.19-1.59-6.29-2.33-1.39-.49-2.81-.92-4.24-1.27-1.1-.27-1.52-.67-1.25-1.93.52-2.38.79-4.81,1.17-7.23-.21-10.2-4.75-18.22-11.95-24.98-1.08-1.01-2.21-1.97-3.3-2.98-.31-.28-.63-.61-.77-.98-.12-.31-.08-.77.09-1.05.08-.15.61-.14.9-.06,2,.52,3.97,1.18,5.99,1.6,4.09.85,8.18.49,12.16-.65,1.57-.44,2.52,0,3.73.96,6.15,4.82,9.6,11.26,11.43,18.66,1.87,7.58-.26,14.46-4.06,20.97Z"/>
      <path class="cls-1" d="m193.04,68.19c-.79-2.31-1.74-4.59-2.4-6.94-1.52-5.43-3.49-10.68-6.14-15.66-2.98-5.6-6.62-10.64-12.22-13.94-1.02-.61-2.22-.9-3.34-1.34-3.12.23-4.95,2.43-4.22,5.34.79,3.14,2.49,5.85,4.57,8.25,2.92,3.39,6.02,6.64,9.14,9.85,4.64,4.77,8.85,9.8,10.93,16.28.11.35.34.69.58.97.85,1,2.09.98,2.94-.04.75-.88.47-1.84.15-2.76Zm-23.29-33.36c1.67,2.9,3.13,5.7,4.84,8.32,1.72,2.65,3.7,5.12,5.56,7.66-4.55-2.5-10.58-11.8-10.41-15.99Z"/>
      <path class="cls-1" d="m32.66,36.29c-2.07,1.41-4.05,3.09-5.7,4.97-3.72,4.27-6.15,9.35-7.73,14.72-1.92,6.52-3.35,13.18-4.99,19.77-.05.2-.04.42-.06.63-.02,1.11.46,1.9,1.55,2.17,1.14.28,1.85-.34,2.28-1.34.11-.27.2-.55.28-.85,1.17-5.08,3.62-9.54,6.76-13.64,2.44-3.19,5.12-6.21,7.45-9.48,2.17-3.05,4.13-6.26,5.94-9.55.72-1.31,1.13-3,1.08-4.5-.13-3.35-3.86-4.97-6.86-2.92Zm1.76,5.4c-.9,5.13-3.65,9.3-6.83,13.24-.5.62-1.04,1.21-1.58,1.81-.07.08-.2.11-.31.16,3.04-5.51,6.63-10.72,8.27-16.92l.53.13c-.02.53.01,1.06-.08,1.58Z"/>
      <path class="cls-1" d="m25.45,99.72c0-2.41.37-4.98,1.95-7.22.74-1.05,1.61-1.89,3.05-1.59,1.19.26,2.05,1.23,2,2.88-.05,1.79-.26,3.67-.87,5.33-1.55,4.28-1.8,8.65-1.58,13.11.02.43-.29.88-.44,1.32-.39-.32-.95-.56-1.14-.97-1.89-3.99-2.75-8.23-2.96-12.86Z"/>
      <path class="cls-1" d="m184.61,96.72c-.49,2.82-.92,5.48-1.42,8.13-.12.66-.36,1.31-.67,1.9-.2.36-.64.6-.97.89-.2-.38-.54-.74-.59-1.13-.19-1.72-.05-3.51-.47-5.16-.83-3.26-2.01-6.42-2.94-9.66-.37-1.28-.58-2.62-.69-3.95-.09-1.09.46-1.98,1.51-2.41,1.01-.42,2.04-.17,2.65.64,1,1.33,2.11,2.72,2.57,4.26.64,2.11.72,4.38,1.02,6.5Z"/>
      <path class="cls-1" d="m28.33,170.19c1.32.23,2.63.28,3.8.72,2.41.89,4.76,1.95,7.09,3.03.76.35,1.25,1.07.84,2-.42.95-1.25.8-2.08.69-2.63-.35-5.26-.62-7.88-1.04-1.56-.25-3.14-.58-4.61-1.16-.58-.23-1.25-1.26-1.18-1.84.08-.66.84-1.42,1.49-1.79.74-.41,1.69-.43,2.52-.62Z"/>
      <path class="cls-1" d="m189.31,164.13c.41.08,1.2.11,1.87.4,1.53.65,1.74,2.64.28,3.4-1.44.74-3.04,1.19-4.62,1.6-2.52.66-5.09,1.14-7.61,1.77-.87.22-1.71.49-2.23-.46-.5-.91-.04-1.65.73-2.17,3.42-2.29,6.93-4.38,11.58-4.53Z"/>
      <path class="cls-1" d="m104.84,52.91c-1.27,5.24-3.38,10.11-6.64,14.41-2.35,3.11-4.78,6.15-7.34,9.08-3.28,3.74-5.79,7.9-7.53,12.54-.61,1.62-1.25,3.23-1.9,4.83-.17.42-.41.8-.61,1.2-.13-.02-.26-.04-.38-.06,0-.57-.13-1.18.02-1.71.77-2.77,1.55-5.54,2.45-8.26.92-2.76,2.5-5.16,4.39-7.37,2.17-2.54,4.3-5.13,6.48-7.66,4.4-5.1,7.56-10.88,9.66-17.27.19-.58.49-1.12.74-1.7,1.06.52.82,1.27.65,1.95Z"/>
      <path class="cls-1" d="m89.68,83.04c-1.52,3.11-2.87,6.3-5.1,9.36-.19-2.17,3.58-9.17,5.1-9.36Z"/>
      <path class="cls-1" d="m62.06,132.31c-.12.07-.24.15-.36.23-.43-.42-.92-.79-1.28-1.27-2.33-3.11-3.88-6.59-4.94-10.33-1.7-5.98-3.37-11.96-3.99-18.16-.22-2.22-.15-4.48-.15-6.71,0-.54.3-1.07.45-1.6.14,0,.28.01.42.02.09.45.22.9.26,1.36.81,9.8,2.38,19.45,5.98,28.66.88,2.23,2.11,4.32,3.16,6.48.2.42.3.88.45,1.32Z"/>
      <path class="cls-1" d="m62.29,125.44c-.13.07-.26.15-.38.23-.29-.24-.69-.43-.86-.74-2.97-5.25-4.89-10.84-5.38-16.88-.06-.67.09-1.36.15-2.05.1,0,.2,0,.3-.01,2.06,6.48,4.11,12.97,6.17,19.45Z"/>
      <path class="cls-1" d="m137.79,93.72c.14-1.62.2-3.25.44-4.86.9-5.94-.26-11.62-2.2-17.2-.58-1.67-1.3-3.3-1.9-4.97-.19-.51-.2-1.09-.34-1.85,6.02,4.28,9.09,25.73,3.99,28.87Z"/>
      <path class="cls-1" d="m126.77,88.02c-2.42-2.3-6.21-8.28-5.94-9.31,1.41.71,6.21,8.1,5.94,9.31Z"/>
      <path class="cls-1" d="m108.49,108.52c-.05,2.49-.14,4.98-.26,7.47-.02.5-.2.99-.31,1.49-.16-.02-.32-.04-.48-.07-.87-3.62,0-7.23-.2-11.05,1.38.53,1.27,1.4,1.25,2.16Z"/>
      <path class="cls-1" d="m161.55,115.32c-.69,2.48-2.06,4.78-3.19,7.12-.18.37-.69.57-1.05.85-.11-.07-.22-.15-.33-.23.15-.68.27-1.37.44-2.04,1.09-4.11,2.4-8.18,3.2-12.35.53-2.74.34-5.63.47-8.45.02-.53,0-1.06,0-1.6.15-.06.31-.12.46-.17.28.47.71.92.79,1.42.92,5.21.61,10.39-.79,15.44Z"/>
      <path class="cls-1" d="m154.54,120.23c-.22.34-.81.44-1.23.66.01-.45-.09-.96.08-1.35.55-1.23,1.2-2.41,1.82-3.62,1.41-2.73,2.21-5.64,2.68-8.67.12-.77.39-1.52.61-2.27.15.01.31.03.47.05.08.38.2.76.23,1.14.27,5.29-1.85,9.79-4.66,14.06Z"/>
      <path class="cls-1" d="m158.4,101.16c-.74-1.05-.77-2.76-.13-3.78,1.07.67,1.17,2.71.13,3.78Z"/>
      <path class="cls-1" d="m167.52,79.42c-.02.34-.27.68-.41,1.01-.15,0-.3,0-.44,0-.09-.4-.24-.79-.25-1.2-.05-2.07.02-4.14-.12-6.21-.37-5.64-3.07-10.3-6.45-14.61-1.22-1.55-2.72-2.89-4.03-4.38-.34-.39-.43-.98-.64-1.47.5.12,1.12.08,1.46.37,5.6,4.68,9.79,10.38,11.12,17.65.52,2.83-.1,5.88-.24,8.82Z"/>
      <path class="cls-1" d="m164.05,81.52c-.22.9-.41,1.82-.67,2.71-.13.44-.4.85-.61,1.26-.14-.04-.28-.07-.43-.1.12-1.57.08-3.16.39-4.68,1.06-5.26.58-10.33-1.39-15.3-.17-.43-.18-.93-.27-1.39.14-.07.27-.14.41-.21.39.55.87,1.04,1.15,1.63,2.49,5.18,2.73,10.56,1.42,16.08Z"/>
      <path class="cls-1" d="m163.57,89.43c-.46-1.13.6-3.76,1.9-4.75.41,1.48-.7,4.26-1.9,4.75Z"/>
      <path class="cls-1" d="m78.8,148.76c-.2.15-.41.3-.61.45-.34-.46-.66-.93-1.02-1.37-2.28-2.84-3.89-6.05-5.12-9.44-.38-1.06-.5-2.19.2-3.6,2.23,4.86,4.69,9.28,6.56,13.95Z"/>
      <path class="cls-1" d="m52.33,52.73c-.18.55-.27,1.13-.53,1.63-1.63,3.16-3.47,6.21-4.89,9.45-1.9,4.37-2.77,9.01-2.77,13.82,0,2.61-.27,5.23-.45,7.84-.03.42-.21.83-.36,1.36-.9-1.07-1.25-12.12-.57-15.62,1.38-7.04,4.3-13.33,8.92-18.78.22.09.43.19.65.29Z"/>
      <path class="cls-1" d="m56.82,53.97c-2.55,3.89-5.09,7.8-7.64,11.69-.12-.04-.24-.08-.36-.12.07-.39.06-.8.2-1.16,1.38-3.57,3-7.02,5.93-9.63.5-.45,1.2-.69,1.87-.78Z"/>
      <path class="cls-1" d="m60.4,64.68c-.98,3.49-2.03,6.96-3.06,10.43-.02.06-.13.09-.2.14-.66-1.25,1.46-10.09,2.91-11.73.15.47.44.87.35,1.16Z"/>
      <path class="cls-1" d="m46.06,82.31c-1.23-1.59-.66-9.49.82-10.95.19,3.84-.49,7.38-.82,10.95Z"/>
      <path class="cls-1" d="m142.56,133.26c0,1.72-.12,3.45-.23,5.17-.04.47-.24.93-.37,1.39-.15,0-.3,0-.45,0-.08-.34-.23-.67-.24-1.01-.09-3.42-.17-6.84-.2-10.25,0-.36.32-.74.5-1.1.26.34.71.65.74,1.01.15,1.59.26,3.19.26,4.78Z"/>
      <path class="cls-1" d="m139.94,130.01c.01,2.66-.98,5.08-2,7.47-.13.03-.27.06-.4.09-.17-.47-.53-.98-.47-1.41.36-2.46.81-4.91,1.25-7.35.06-.31.28-.58.42-.87.18-.02.34-.04.52-.07.23.71.66,1.42.67,2.14Z"/>
    </g>
  </g>
</svg>